<?xml version="1.0" encoding="UTF-8"?> <svg xmlns="http://www.w3.org/2000/svg" width="64" height="60" viewBox="0 0 64 60" fill="none"><circle cx="32" cy="30" r="30" fill="#D8A481"></circle><path d="M15.2752 38.192C16.7952 38.192 18.3152 37.36 18.3152 35.84C18.3152 35.152 18.0112 34.096 16.3312 33.664L15.1312 33.344C14.6992 33.248 14.3312 33.024 14.3312 32.64C14.3312 32.176 14.7312 31.84 15.3072 31.84C15.8352 31.84 16.2992 32.16 16.2992 32.672H18.0752C18.0912 31.008 16.5872 30.336 15.2592 30.336C13.6272 30.336 12.4752 31.392 12.4752 32.56C12.4752 33.504 12.9072 34.4 14.5872 34.848L15.5792 35.104C16.1392 35.232 16.4592 35.424 16.4592 35.84C16.4592 36.32 15.9792 36.688 15.2432 36.688C14.4592 36.688 14.0112 36.208 14.0112 35.696H12.2672C12.2992 37.296 13.7872 38.192 15.2752 38.192ZM22.2215 30.528V27.776H20.3655V30.528H19.0215V32H20.3655V38H22.2215V32H23.8055V30.528H22.2215ZM32.0285 34.192C32.0285 31.856 30.3485 30.336 28.2205 30.336C26.0765 30.336 24.3005 31.872 24.3005 34.256C24.3005 36.592 25.9965 38.192 28.2205 38.192C29.5805 38.192 30.9085 37.584 31.5965 36.496L30.3485 35.552C29.9165 36.16 29.1325 36.512 28.3325 36.512C27.2125 36.512 26.4125 35.952 26.2045 34.912H31.9965C32.0125 34.64 32.0285 34.4 32.0285 34.192ZM26.2045 33.616C26.4285 32.48 27.2445 31.984 28.2365 31.984C29.2765 31.984 30.0765 32.592 30.1885 33.616H26.2045ZM37.7489 30.336C36.8529 30.336 35.7809 30.72 35.2689 31.52V30.528H33.4129V41.648H35.2689V37.008C35.7809 37.808 36.8209 38.192 37.7649 38.192C39.7329 38.192 41.4289 36.656 41.4289 34.272C41.4289 31.872 39.7169 30.336 37.7489 30.336ZM37.4609 36.464C36.3889 36.464 35.3009 35.6 35.3009 34.272C35.3009 32.96 36.3249 32.064 37.4609 32.064C38.6129 32.064 39.5729 33.04 39.5729 34.272C39.5729 35.52 38.6129 36.464 37.4609 36.464ZM42.5262 22.488V25.512L46.6422 23.888V38H49.8622V19.436H49.6382L42.5262 22.488Z" fill="white"></path></svg> 