<?xml version="1.0" encoding="UTF-8"?> <svg xmlns="http://www.w3.org/2000/svg" width="64" height="60" viewBox="0 0 64 60" fill="none"><circle cx="32" cy="30" r="30" fill="#D8A481"></circle><path d="M12.3357 38.192C13.8557 38.192 15.3757 37.36 15.3757 35.84C15.3757 35.152 15.0717 34.096 13.3917 33.664L12.1917 33.344C11.7597 33.248 11.3917 33.024 11.3917 32.64C11.3917 32.176 11.7917 31.84 12.3677 31.84C12.8957 31.84 13.3597 32.16 13.3597 32.672H15.1357C15.1517 31.008 13.6477 30.336 12.3197 30.336C10.6877 30.336 9.5357 31.392 9.5357 32.56C9.5357 33.504 9.9677 34.4 11.6477 34.848L12.6397 35.104C13.1997 35.232 13.5197 35.424 13.5197 35.84C13.5197 36.32 13.0397 36.688 12.3037 36.688C11.5197 36.688 11.0717 36.208 11.0717 35.696H9.3277C9.3597 37.296 10.8477 38.192 12.3357 38.192ZM19.2821 30.528V27.776H17.4261V30.528H16.0821V32H17.4261V38H19.2821V32H20.8661V30.528H19.2821ZM29.0891 34.192C29.0891 31.856 27.4091 30.336 25.2811 30.336C23.1371 30.336 21.3611 31.872 21.3611 34.256C21.3611 36.592 23.0571 38.192 25.2811 38.192C26.6411 38.192 27.9691 37.584 28.6571 36.496L27.4091 35.552C26.9771 36.16 26.1931 36.512 25.3931 36.512C24.2731 36.512 23.4731 35.952 23.2651 34.912H29.0571C29.0731 34.64 29.0891 34.4 29.0891 34.192ZM23.2651 33.616C23.4891 32.48 24.3051 31.984 25.2971 31.984C26.3371 31.984 27.1371 32.592 27.2491 33.616H23.2651ZM34.8095 30.336C33.9135 30.336 32.8415 30.72 32.3295 31.52V30.528H30.4735V41.648H32.3295V37.008C32.8415 37.808 33.8815 38.192 34.8255 38.192C36.7935 38.192 38.4895 36.656 38.4895 34.272C38.4895 31.872 36.7775 30.336 34.8095 30.336ZM34.5215 36.464C33.4495 36.464 32.3615 35.6 32.3615 34.272C32.3615 32.96 33.3855 32.064 34.5215 32.064C35.6735 32.064 36.6335 33.04 36.6335 34.272C36.6335 35.52 35.6735 36.464 34.5215 36.464ZM51.4027 31.448V19.66H49.9187L39.1107 33.52V34.388H48.1267V38H51.4027V34.388H54.1467V31.448H51.4027ZM48.1267 26.184V31.448H44.0107L48.1267 26.184Z" fill="white"></path></svg> 