<?xml version="1.0" encoding="UTF-8"?> <svg xmlns="http://www.w3.org/2000/svg" width="64" height="60" viewBox="0 0 64 60" fill="none"><circle cx="32" cy="30" r="30" fill="#D8A481"></circle><path d="M13.197 38.192C14.717 38.192 16.237 37.36 16.237 35.84C16.237 35.152 15.933 34.096 14.253 33.664L13.053 33.344C12.621 33.248 12.253 33.024 12.253 32.64C12.253 32.176 12.653 31.84 13.229 31.84C13.757 31.84 14.221 32.16 14.221 32.672H15.997C16.013 31.008 14.509 30.336 13.181 30.336C11.549 30.336 10.397 31.392 10.397 32.56C10.397 33.504 10.829 34.4 12.509 34.848L13.501 35.104C14.061 35.232 14.381 35.424 14.381 35.84C14.381 36.32 13.901 36.688 13.165 36.688C12.381 36.688 11.933 36.208 11.933 35.696H10.189C10.221 37.296 11.709 38.192 13.197 38.192ZM20.1434 30.528V27.776H18.2874V30.528H16.9434V32H18.2874V38H20.1434V32H21.7274V30.528H20.1434ZM29.9504 34.192C29.9504 31.856 28.2704 30.336 26.1424 30.336C23.9984 30.336 22.2224 31.872 22.2224 34.256C22.2224 36.592 23.9184 38.192 26.1424 38.192C27.5024 38.192 28.8304 37.584 29.5184 36.496L28.2704 35.552C27.8384 36.16 27.0544 36.512 26.2544 36.512C25.1344 36.512 24.3344 35.952 24.1264 34.912H29.9184C29.9344 34.64 29.9504 34.4 29.9504 34.192ZM24.1264 33.616C24.3504 32.48 25.1664 31.984 26.1584 31.984C27.1984 31.984 27.9984 32.592 28.1104 33.616H24.1264ZM35.6708 30.336C34.7748 30.336 33.7028 30.72 33.1908 31.52V30.528H31.3348V41.648H33.1908V37.008C33.7028 37.808 34.7428 38.192 35.6868 38.192C37.6548 38.192 39.3508 36.656 39.3508 34.272C39.3508 31.872 37.6388 30.336 35.6708 30.336ZM35.3828 36.464C34.3108 36.464 33.2228 35.6 33.2228 34.272C33.2228 32.96 34.2468 32.064 35.3828 32.064C36.5348 32.064 37.4948 33.04 37.4948 34.272C37.4948 35.52 36.5348 36.464 35.3828 36.464ZM49.828 28.144C51.312 27.416 52.208 26.044 52.208 24.42C52.236 21.368 49.884 19.436 46.664 19.436C44.424 19.436 42.492 20.472 41.316 22.04L43.248 24.028C43.948 23.048 45.208 22.432 46.384 22.432C47.868 22.432 48.876 23.272 48.932 24.532C48.988 25.96 47.784 27.052 45.824 27.052H44.536V29.6H46.356C48.344 29.6 49.772 30.804 49.772 32.54C49.772 34.164 48.372 35.368 46.328 35.368C44.9 35.368 43.696 34.556 42.856 33.184L40.476 34.892C41.708 37.104 43.836 38.336 46.468 38.336C50.332 38.336 53.048 36.012 53.048 32.652C53.048 30.496 51.788 28.816 49.828 28.144Z" fill="white"></path></svg> 