<?xml version="1.0" encoding="UTF-8"?> <svg xmlns="http://www.w3.org/2000/svg" width="64" height="60" viewBox="0 0 64 60" fill="none"><circle cx="32" cy="30" r="30" fill="#D8A481"></circle><path d="M13.115 38.192C14.635 38.192 16.155 37.36 16.155 35.84C16.155 35.152 15.851 34.096 14.171 33.664L12.971 33.344C12.539 33.248 12.171 33.024 12.171 32.64C12.171 32.176 12.571 31.84 13.147 31.84C13.675 31.84 14.139 32.16 14.139 32.672H15.915C15.931 31.008 14.427 30.336 13.099 30.336C11.467 30.336 10.315 31.392 10.315 32.56C10.315 33.504 10.747 34.4 12.427 34.848L13.419 35.104C13.979 35.232 14.299 35.424 14.299 35.84C14.299 36.32 13.819 36.688 13.083 36.688C12.299 36.688 11.851 36.208 11.851 35.696H10.107C10.139 37.296 11.627 38.192 13.115 38.192ZM20.0614 30.528V27.776H18.2054V30.528H16.8614V32H18.2054V38H20.0614V32H21.6454V30.528H20.0614ZM29.8684 34.192C29.8684 31.856 28.1884 30.336 26.0604 30.336C23.9164 30.336 22.1404 31.872 22.1404 34.256C22.1404 36.592 23.8364 38.192 26.0604 38.192C27.4204 38.192 28.7484 37.584 29.4364 36.496L28.1884 35.552C27.7564 36.16 26.9724 36.512 26.1724 36.512C25.0524 36.512 24.2524 35.952 24.0444 34.912H29.8364C29.8524 34.64 29.8684 34.4 29.8684 34.192ZM24.0444 33.616C24.2684 32.48 25.0844 31.984 26.0764 31.984C27.1164 31.984 27.9164 32.592 28.0284 33.616H24.0444ZM35.5888 30.336C34.6928 30.336 33.6208 30.72 33.1088 31.52V30.528H31.2528V41.648H33.1088V37.008C33.6208 37.808 34.6608 38.192 35.6048 38.192C37.5728 38.192 39.2688 36.656 39.2688 34.272C39.2688 31.872 37.5568 30.336 35.5888 30.336ZM35.3008 36.464C34.2288 36.464 33.1408 35.6 33.1408 34.272C33.1408 32.96 34.1648 32.064 35.3008 32.064C36.4528 32.064 37.4128 33.04 37.4128 34.272C37.4128 35.52 36.4528 36.464 35.3008 36.464ZM50.726 29.628C51.902 28.256 52.77 26.548 52.77 24.952C52.77 21.648 50.446 19.436 46.862 19.436C43.39 19.436 41.234 21.536 40.814 24.616L43.754 25.176C43.922 23.552 45.014 22.46 46.75 22.46C48.402 22.46 49.494 23.44 49.494 24.896C49.494 25.624 48.906 26.744 47.982 27.864L40.954 36.348V38H53.022V34.948H46.162L50.726 29.628Z" fill="white"></path></svg> 