<svg xmlns="http://www.w3.org/2000/svg" width="267" height="61" viewBox="0 0 267 61" fill="none"><path d="M2.93848 14.6006V6.89551C2.93848 5.89941 2.87012 5.26953 2.7334 5.00586C2.59668 4.73242 2.22559 4.5127 1.62012 4.34668C0.741211 4.09277 0.301758 3.65332 0.301758 3.02832C0.301758 2.58887 0.487305 2.25195 0.858398 2.01758C1.22949 1.7832 1.7666 1.66602 2.46973 1.66602C2.7041 1.66602 3.28516 1.68066 4.21289 1.70996H5.0918C6.71289 1.7002 7.66016 1.69043 7.93359 1.68066C8.2168 1.66113 9.21289 1.57324 10.9219 1.41699C11.4883 1.3584 12.0059 1.3291 12.4746 1.3291C14.0762 1.3291 15.502 1.65625 16.752 2.31055C18.9297 3.44336 20.0186 5.24023 20.0186 7.70117C20.0186 9.69336 19.2568 11.29 17.7334 12.4912C16.2979 13.6143 14.5596 14.1758 12.5186 14.1758C12.001 14.1758 11.3662 14.1416 10.6143 14.0732C10.2139 14.0439 9.96484 14.0293 9.86719 14.0293C9.58398 14.0293 9.44238 14.1904 9.44238 14.5127V14.6006L9.54492 17.0029C9.56445 17.4717 9.64746 17.8232 9.79395 18.0576C9.9502 18.2822 10.2627 18.5166 10.7314 18.7607C11.3662 19.1025 11.6836 19.4736 11.6836 19.874C11.6836 20.4893 11.2148 20.9629 10.2773 21.2949C9.33984 21.627 8.01172 21.793 6.29297 21.793C2.67969 21.793 0.873047 21.1729 0.873047 19.9326C0.873047 19.6396 0.951172 19.415 1.10742 19.2588C1.26367 19.1025 1.62988 18.8779 2.20605 18.585C2.55762 18.3994 2.7627 18.1406 2.82129 17.8086C2.87988 17.4766 2.91895 16.4072 2.93848 14.6006ZM9.54492 5.03516V10.0156C9.54492 10.3965 9.62793 10.626 9.79395 10.7041C10.0771 10.8408 10.4336 10.9092 10.8633 10.9092C11.5078 10.9092 12.0498 10.7285 12.4893 10.3672C13.124 9.84961 13.4414 8.98047 13.4414 7.75977C13.4414 6.49023 13.0703 5.57227 12.3281 5.00586C11.8594 4.64453 11.293 4.46387 10.6289 4.46387C9.90625 4.46387 9.54492 4.6543 9.54492 5.03516ZM29.3643 9.88379V14.5859C29.3643 16.666 29.3936 17.877 29.4521 18.2188C29.5205 18.5605 29.7646 18.8242 30.1846 19.0098C30.5459 19.166 30.7852 19.3125 30.9023 19.4492C31.0293 19.5859 31.0928 19.7812 31.0928 20.0352C31.0928 20.3574 30.9756 20.6504 30.7412 20.9141C30.5166 21.1777 30.2139 21.3633 29.833 21.4707C29.1299 21.6855 27.9434 21.793 26.2734 21.793C24.3887 21.793 23.0654 21.6514 22.3037 21.3682C21.9521 21.2412 21.6641 21.0459 21.4395 20.7822C21.2148 20.5088 21.1025 20.2256 21.1025 19.9326C21.1025 19.6982 21.1611 19.5176 21.2783 19.3906C21.4053 19.2637 21.6738 19.1123 22.084 18.9365C22.4648 18.7705 22.6992 18.3164 22.7871 17.5742C22.9434 16.3047 23.0215 14.498 23.0215 12.1543C23.0215 9.77148 22.9531 8.23828 22.8164 7.55469C22.6797 6.87109 22.3379 6.36328 21.791 6.03125C21.3809 5.79688 21.0977 5.57715 20.9414 5.37207C20.7949 5.15723 20.7217 4.89844 20.7217 4.5957C20.7217 4.11719 20.9512 3.70215 21.4102 3.35059C21.8691 2.98926 22.6016 2.65723 23.6074 2.35449C24.2812 2.14941 25.1553 1.9541 26.2295 1.76855C27.3037 1.58301 28.085 1.49023 28.5732 1.49023C29.3447 1.49023 29.7305 1.96875 29.7305 2.92578C29.7305 3.23828 29.6816 3.95605 29.584 5.0791C29.457 6.82715 29.3838 8.42871 29.3643 9.88379ZM40.3213 6.89551C42.0205 6.89551 43.4609 7.3252 44.6426 8.18457C45.2676 8.64355 45.7021 9.1709 45.9463 9.7666C46.2002 10.3525 46.3271 11.1631 46.3271 12.1982L46.2979 14.3809C46.2979 15.8945 46.4053 16.876 46.6201 17.3252C46.7275 17.54 46.8301 17.6768 46.9277 17.7354C47.0254 17.7939 47.2305 17.8477 47.543 17.8965C47.8555 17.9453 48.0117 18.1504 48.0117 18.5117C48.0117 18.9805 47.8213 19.4688 47.4404 19.9766C47.0693 20.4844 46.5859 20.9092 45.9902 21.251C45.2578 21.6807 44.4912 21.8955 43.6904 21.8955C42.665 21.8955 41.8545 21.5439 41.2588 20.8408C41.0537 20.5869 40.8633 20.46 40.6875 20.46C40.4922 20.46 40.2334 20.582 39.9111 20.8262C38.9346 21.5391 37.8262 21.8955 36.5859 21.8955C35.3066 21.8955 34.2715 21.6221 33.4805 21.0752C32.9629 20.7139 32.5527 20.2451 32.25 19.6689C31.9473 19.083 31.7959 18.4727 31.7959 17.8379C31.7959 16.8223 32.2061 15.9238 33.0264 15.1426C34.3057 13.9121 36.2197 13.292 38.7686 13.2822C39.335 13.2822 39.6914 13.2285 39.8379 13.1211C39.9844 13.0039 40.0576 12.7402 40.0576 12.3301C40.0576 11.2949 39.9502 10.5479 39.7354 10.0889C39.5205 9.62012 39.1689 9.38574 38.6807 9.38574C38.3877 9.38574 38.124 9.47363 37.8896 9.64941C37.665 9.8252 37.3818 10.1475 37.04 10.6162C36.1709 11.8564 35.2627 12.4766 34.3154 12.4766C33.8369 12.4766 33.4463 12.335 33.1436 12.0518C32.8408 11.7686 32.6895 11.3975 32.6895 10.9385C32.6895 10.4697 32.875 10.001 33.2461 9.53223C33.627 9.06348 34.1396 8.65332 34.7842 8.30176C36.5518 7.36426 38.3975 6.89551 40.3213 6.89551ZM39.3398 15.377C38.9102 15.377 38.5342 15.5527 38.2119 15.9043C37.8994 16.2559 37.7432 16.6758 37.7432 17.1641C37.7432 17.6328 37.8555 18.0137 38.0801 18.3066C38.3047 18.5898 38.6025 18.7314 38.9736 18.7314C39.7549 18.7314 40.1455 18.0723 40.1455 16.7539C40.1455 16.2168 40.0869 15.8555 39.9697 15.6699C39.8623 15.4844 39.6523 15.3867 39.3398 15.377ZM62.0889 14.1172L60.1553 19.4346C59.6768 20.7529 59.1934 21.8271 58.7051 22.6572C58.2266 23.4971 57.6797 24.21 57.0645 24.7959C55.7949 26.0068 54.2666 26.6123 52.4795 26.6123C51.0342 26.6123 49.8623 26.2314 48.9639 25.4697C48.2705 24.8838 47.9238 24.1367 47.9238 23.2285C47.9238 22.4766 48.1631 21.8467 48.6416 21.3389C49.1299 20.8213 49.7256 20.5625 50.4287 20.5625C51.1318 20.5625 51.6982 20.7969 52.1279 21.2656C52.333 21.4805 52.4697 21.6709 52.5381 21.8369C52.6064 22.0029 52.709 22.3691 52.8457 22.9355C52.9531 23.3652 53.1973 23.5801 53.5781 23.5801C53.8809 23.5801 54.1348 23.4482 54.3398 23.1846C54.5449 22.9209 54.6475 22.5938 54.6475 22.2031C54.6475 21.7441 54.3936 20.9775 53.8857 19.9033L50.3555 12.3887C49.9844 11.6074 49.7061 11.1191 49.5205 10.9238C49.335 10.7285 48.9248 10.4893 48.29 10.2061C48.0947 10.1279 47.9238 9.97656 47.7773 9.75195C47.6406 9.51758 47.5723 9.29297 47.5723 9.07812C47.5723 8.20898 48.4365 7.61816 50.165 7.30566C51.3174 7.10059 52.6309 6.99805 54.1055 6.99805C55.1406 6.99805 55.9561 7.10547 56.5518 7.32031C57.3525 7.60352 57.7529 8.08691 57.7529 8.77051C57.7529 9.01465 57.6406 9.30273 57.416 9.63477C57.2012 9.94727 57.0938 10.2256 57.0938 10.4697C57.0938 10.7041 57.1426 10.9482 57.2402 11.2021C57.3477 11.4561 57.5674 11.8857 57.8994 12.4912C58.2705 13.1748 58.5977 13.5166 58.8809 13.5166C59.1836 13.5166 59.4961 13.2188 59.8184 12.623C60.1406 12.0176 60.3018 11.4365 60.3018 10.8799C60.3018 10.4307 60.1797 10.0645 59.9355 9.78125C59.5645 9.3418 59.3789 8.96582 59.3789 8.65332C59.3789 8.15527 59.7109 7.75977 60.375 7.4668C61.0391 7.16406 61.9277 7.0127 63.041 7.0127C65.1113 7.0127 66.1465 7.51074 66.1465 8.50684C66.1465 8.86816 66.0391 9.16113 65.8242 9.38574C65.6191 9.60059 65.2383 9.80566 64.6816 10.001C64.2129 10.1768 63.8418 10.4697 63.5684 10.8799C63.1387 11.5342 62.6455 12.6133 62.0889 14.1172ZM91.0488 18.9658L89.54 16.5488C89.1885 16.002 88.959 15.6748 88.8516 15.5674C88.7539 15.46 88.6221 15.4062 88.4561 15.4062C88.1045 15.4062 87.7432 15.7285 87.3721 16.373L84.9258 20.5918C84.457 21.4023 83.9297 21.8076 83.3438 21.8076C82.9824 21.8076 82.6504 21.6855 82.3477 21.4414C82.0449 21.1875 81.7178 20.7627 81.3662 20.167L76.9717 12.8574C76.2393 11.6758 75.668 10.9043 75.2578 10.543C75.0625 10.3867 74.7061 10.2354 74.1885 10.0889C73.9736 10.0205 73.793 9.88867 73.6465 9.69336C73.5098 9.48828 73.4414 9.26367 73.4414 9.01953C73.4414 8.26758 74.0225 7.74023 75.1846 7.4375C76.3564 7.14453 77.6357 6.99805 79.0225 6.99805C82.1377 6.99805 83.6953 7.5791 83.6953 8.74121C83.6953 8.95605 83.5439 9.2832 83.2412 9.72266C83.1826 9.81055 83.1533 9.90332 83.1533 10.001C83.1533 10.2158 83.3828 10.748 83.8418 11.5977C84.3496 12.5645 84.7891 13.0479 85.1602 13.0479C85.375 13.0479 85.6484 12.8037 85.9805 12.3154C86.3125 11.8271 86.4785 11.4316 86.4785 11.1289C86.4785 10.8262 86.4053 10.5869 86.2588 10.4111C86.1123 10.2256 85.7656 9.9375 85.2188 9.54688C84.8867 9.3125 84.7207 9.03418 84.7207 8.71191C84.7207 7.9502 85.502 7.45215 87.0645 7.21777C88.0117 7.07129 89.125 6.99805 90.4043 6.99805C91.8789 6.99805 92.9434 7.125 93.5977 7.37891C94.252 7.62305 94.5791 8.02344 94.5791 8.58008C94.5791 8.80469 94.54 8.98535 94.4619 9.12207C94.3838 9.25879 94.1738 9.50293 93.832 9.85449C93.7246 9.97168 93.6709 10.123 93.6709 10.3086C93.6709 10.5723 93.8955 11.1289 94.3447 11.9785C94.7354 12.7207 95.0918 13.0918 95.4141 13.0918C95.7656 13.0918 96.21 12.6182 96.7471 11.6709C97.1377 10.958 97.333 10.4844 97.333 10.25C97.333 10.0645 97.1768 9.77637 96.8643 9.38574C96.6396 9.1123 96.5273 8.81445 96.5273 8.49219C96.5273 7.98438 96.7568 7.63281 97.2158 7.4375C97.8604 7.1543 98.7979 7.0127 100.028 7.0127C100.858 7.0127 101.596 7.07617 102.24 7.20312C102.611 7.28125 102.914 7.44238 103.148 7.68652C103.383 7.9209 103.5 8.19434 103.5 8.50684C103.5 8.81934 103.363 9.08301 103.09 9.29785C103.041 9.34668 102.699 9.4834 102.064 9.70801C101.703 9.84473 101.405 10.04 101.171 10.2939C100.937 10.5479 100.653 11.002 100.321 11.6562L96.6592 18.7461C95.585 20.8164 94.6377 21.8516 93.8174 21.8516C93.4658 21.8516 93.0752 21.6318 92.6455 21.1924C92.2256 20.7432 91.6934 20.001 91.0488 18.9658ZM112.025 7.9209V16.4316C112.025 17.1055 112.084 17.5986 112.201 17.9111C112.328 18.2236 112.577 18.5117 112.948 18.7754C113.251 18.9902 113.451 19.1758 113.549 19.332C113.656 19.4785 113.71 19.6689 113.71 19.9033C113.71 21.1631 112.113 21.793 108.92 21.793C107.201 21.793 105.839 21.6562 104.833 21.3828C104.491 21.2852 104.213 21.1143 103.998 20.8701C103.793 20.626 103.69 20.3477 103.69 20.0352C103.69 19.7715 103.744 19.5664 103.852 19.4199C103.959 19.2734 104.232 19.0391 104.672 18.7168C104.975 18.4922 105.189 18.126 105.316 17.6182C105.443 17.1104 105.507 16.3535 105.507 15.3477C105.507 15.0254 105.482 14.4248 105.434 13.5459C105.395 12.6572 105.365 12.1396 105.346 11.9932C105.287 11.5928 105.014 11.2852 104.525 11.0703C103.92 10.8066 103.617 10.416 103.617 9.89844C103.617 9.2832 104.013 8.82422 104.804 8.52148C105.897 8.10156 107.069 7.74512 108.319 7.45215C109.569 7.15918 110.536 7.0127 111.22 7.0127C111.757 7.0127 112.025 7.31543 112.025 7.9209ZM109.125 1.50488C109.975 1.50488 110.648 1.66602 111.146 1.98828C111.645 2.30078 111.894 2.72559 111.894 3.2627C111.894 4.01465 111.518 4.61035 110.766 5.0498C109.574 5.74316 108.134 6.08984 106.444 6.08984C105.731 6.08984 105.165 5.95313 104.745 5.67969C104.179 5.32812 103.896 4.83984 103.896 4.21484C103.896 3.375 104.496 2.71582 105.697 2.2373C106.918 1.74902 108.061 1.50488 109.125 1.50488ZM123.275 10.748V15.6992C123.275 16.2852 123.417 16.7637 123.7 17.1348C123.993 17.5059 124.364 17.6914 124.813 17.6914C125.194 17.6914 125.697 17.5156 126.322 17.1641C126.469 17.0762 126.615 17.0322 126.762 17.0322C126.996 17.0322 127.211 17.1738 127.406 17.457C127.602 17.7402 127.699 18.0479 127.699 18.3799C127.699 18.9854 127.367 19.5664 126.703 20.123C125.316 21.3047 123.637 21.8955 121.664 21.8955C120.102 21.8955 118.847 21.4561 117.899 20.5771C116.952 19.6885 116.479 18.5215 116.479 17.0762V10.3086C116.479 10.084 116.449 9.94727 116.391 9.89844C116.342 9.83984 116.205 9.81055 115.98 9.81055H114.472C114.188 9.81055 114.008 9.7666 113.93 9.67871C113.852 9.58105 113.812 9.36133 113.812 9.01953V8.375C113.822 8.08203 113.935 7.86719 114.149 7.73047L120.858 3.51172C121.024 3.42383 121.229 3.37988 121.474 3.37988H122.66C122.904 3.37988 123.065 3.43848 123.144 3.55566C123.231 3.66309 123.275 3.88281 123.275 4.21484V6.19238C123.275 6.48535 123.319 6.67578 123.407 6.76367C123.505 6.85156 123.705 6.89551 124.008 6.89551H126.718C127.079 6.89551 127.313 6.96387 127.421 7.10059C127.528 7.22754 127.582 7.50586 127.582 7.93555V8.7998C127.582 9.26855 127.514 9.5957 127.377 9.78125C127.24 9.95703 126.991 10.0449 126.63 10.0449H123.979C123.705 10.0449 123.52 10.0938 123.422 10.1914C123.324 10.2891 123.275 10.4746 123.275 10.748ZM136.723 2.22266L136.532 8.36035C136.513 9.09277 136.737 9.45898 137.206 9.45898C137.44 9.45898 137.67 9.29785 137.895 8.97559C138.842 7.59863 140.106 6.91016 141.688 6.91016C143.241 6.91016 144.477 7.38379 145.395 8.33105C145.805 8.75098 146.093 9.24902 146.259 9.8252C146.435 10.4014 146.532 11.2266 146.552 12.3008L146.684 17.5889C146.693 18.0479 146.752 18.3848 146.859 18.5996C146.977 18.8145 147.24 19.083 147.65 19.4053C147.934 19.6299 148.075 19.8984 148.075 20.2109C148.075 21.2656 146.483 21.793 143.3 21.793C140.468 21.793 139.052 21.2998 139.052 20.3135C139.052 20.1475 139.076 20.0205 139.125 19.9326C139.174 19.8447 139.345 19.6104 139.638 19.2295C140.048 18.6924 140.253 17.3496 140.253 15.2012C140.253 13.9023 140.131 12.9551 139.887 12.3594C139.564 11.5488 138.988 11.1436 138.158 11.1436C137.562 11.1436 137.123 11.3584 136.84 11.7881C136.635 12.1006 136.532 12.6865 136.532 13.5459V16.373C136.601 17.623 136.659 18.3311 136.708 18.4971C136.757 18.6631 136.981 18.9707 137.382 19.4199C137.567 19.625 137.66 19.8643 137.66 20.1377C137.66 21.2412 136.225 21.793 133.354 21.793C129.994 21.793 128.314 21.2217 128.314 20.0791C128.314 19.8154 128.368 19.6152 128.476 19.4785C128.583 19.332 128.847 19.1123 129.267 18.8193C129.638 18.5557 129.892 17.8477 130.028 16.6953C130.175 15.5332 130.248 13.6143 130.248 10.9385C130.248 8.83887 130.189 7.38379 130.072 6.57324C130.033 6.27051 129.96 6.05078 129.853 5.91406C129.755 5.76758 129.564 5.62109 129.281 5.47461C128.676 5.16211 128.373 4.80078 128.373 4.39062C128.373 3.90234 128.603 3.50684 129.062 3.2041C129.521 2.90137 130.399 2.57422 131.698 2.22266C133.456 1.73438 134.857 1.49023 135.902 1.49023C136.469 1.49023 136.742 1.73438 136.723 2.22266ZM159.501 1.50488H167.03C168.554 1.50488 169.662 1.47559 170.355 1.41699C171.059 1.34863 171.742 1.2168 172.406 1.02148C172.611 0.962891 172.772 0.933594 172.89 0.933594C173.397 0.933594 173.847 1.20703 174.237 1.75391C174.882 2.64258 175.204 3.7168 175.204 4.97656C175.204 5.61133 175.067 6.11426 174.794 6.48535C174.53 6.84668 174.164 7.02734 173.695 7.02734C173.373 7.02734 173.119 6.96387 172.934 6.83691C172.758 6.7002 172.519 6.40234 172.216 5.94336C171.786 5.28906 171.239 4.85449 170.575 4.63965C169.921 4.41504 168.842 4.30273 167.338 4.30273C166.215 4.30273 165.531 4.50293 165.287 4.90332C165.16 5.11816 165.082 5.40625 165.053 5.76758C165.033 6.12891 165.023 7.05176 165.023 8.53613C165.023 9.12207 165.121 9.48828 165.316 9.63477C165.512 9.77148 166.024 9.83984 166.854 9.83984C167.265 9.83984 167.562 9.75684 167.748 9.59082C167.934 9.41504 168.051 9.10742 168.1 8.66797C168.168 8.10156 168.236 7.71582 168.305 7.51074C168.383 7.2959 168.52 7.11035 168.715 6.9541C168.92 6.77832 169.159 6.69043 169.433 6.69043C169.833 6.69043 170.175 6.88086 170.458 7.26172C170.663 7.54492 170.834 8.04785 170.971 8.77051C171.117 9.4834 171.19 10.2305 171.19 11.0117C171.19 12.5547 170.951 13.8193 170.473 14.8057C170.209 15.3428 169.809 15.6113 169.271 15.6113C168.939 15.6113 168.71 15.5283 168.583 15.3623C168.456 15.1865 168.358 14.8301 168.29 14.293C168.144 13.1895 167.499 12.6377 166.356 12.6377C165.917 12.6377 165.614 12.7793 165.448 13.0625C165.292 13.3359 165.214 13.8486 165.214 14.6006C165.214 15.0596 165.243 15.6553 165.302 16.3877C165.37 17.1104 165.438 17.5889 165.507 17.8232C165.585 18.1162 165.824 18.3213 166.225 18.4385C166.635 18.5459 167.313 18.5996 168.261 18.5996C169.726 18.5996 170.829 18.4141 171.571 18.043C172.313 17.6621 172.919 16.9785 173.388 15.9922C173.661 15.4258 173.905 15.0449 174.12 14.8496C174.345 14.6543 174.633 14.5566 174.984 14.5566C175.395 14.5566 175.731 14.7373 175.995 15.0986C176.269 15.4502 176.405 15.8945 176.405 16.4316C176.405 17.0176 176.254 17.75 175.951 18.6289C175.648 19.5078 175.277 20.2891 174.838 20.9727C174.613 21.3047 174.428 21.5244 174.281 21.6318C174.135 21.749 173.949 21.8076 173.725 21.8076C173.539 21.8076 173.271 21.7783 172.919 21.7197C172.294 21.6025 171.459 21.5293 170.414 21.5H157.992C157.494 21.5 157.108 21.3926 156.835 21.1777C156.562 20.9531 156.425 20.6406 156.425 20.2402C156.425 19.957 156.483 19.752 156.601 19.625C156.718 19.498 156.986 19.3369 157.406 19.1416C157.699 19.0146 157.914 18.8584 158.051 18.6729C158.197 18.4873 158.31 18.2139 158.388 17.8525C158.71 16.3779 158.871 14.3906 158.871 11.8906C158.871 8.12109 158.637 5.74316 158.168 4.75684C158.07 4.56152 157.963 4.4248 157.846 4.34668C157.729 4.26855 157.484 4.17578 157.113 4.06836C156.557 3.90234 156.278 3.53125 156.278 2.95508C156.278 2.64258 156.371 2.36426 156.557 2.12012C156.742 1.87598 156.986 1.71484 157.289 1.63672C157.67 1.54883 158.407 1.50488 159.501 1.50488ZM183.466 1.50488H191.186C192.016 1.47559 192.772 1.36328 193.456 1.16797C193.749 1.08984 194.008 1.05078 194.232 1.05078C195.023 1.05078 195.79 1.63672 196.532 2.80859C197.284 3.98047 197.66 5.18652 197.66 6.42676C197.66 7.27637 197.401 7.89648 196.884 8.28711C196.493 8.58008 196.024 8.72656 195.478 8.72656C194.96 8.72656 194.511 8.58496 194.13 8.30176C193.749 8.00879 193.373 7.53027 193.002 6.86621C192.68 6.26074 192.426 5.86523 192.24 5.67969C192.055 5.49414 191.83 5.40137 191.566 5.40137C191.205 5.40137 190.946 5.55273 190.79 5.85547C190.634 6.1582 190.556 6.65625 190.556 7.34961V15.5527C190.556 16.3926 190.644 17.0029 190.819 17.3838C190.995 17.7646 191.327 18.0576 191.815 18.2627C192.343 18.4873 192.699 18.7021 192.885 18.9072C193.08 19.1025 193.178 19.376 193.178 19.7275C193.178 20.4307 192.699 20.9531 191.742 21.2949C190.795 21.6367 189.335 21.8076 187.362 21.8076C184.94 21.8076 183.144 21.6074 181.972 21.207C180.985 20.875 180.492 20.3379 180.492 19.5957C180.492 19.1953 180.668 18.8828 181.02 18.6582C181.107 18.6094 181.454 18.4922 182.06 18.3066C182.431 18.1992 182.685 17.9941 182.821 17.6914C182.968 17.3887 183.085 16.8076 183.173 15.9482C183.251 15.1865 183.324 13.9561 183.393 12.2568C183.461 10.5479 183.495 9.06836 183.495 7.81836C183.495 6.93945 183.427 6.31445 183.29 5.94336C183.153 5.57227 182.929 5.38672 182.616 5.38672C182.235 5.38672 181.864 5.66016 181.503 6.20703C180.849 7.20312 180.312 7.8623 179.892 8.18457C179.394 8.56543 178.91 8.75586 178.441 8.75586C177.914 8.75586 177.479 8.56055 177.138 8.16992C176.796 7.76953 176.625 7.26172 176.625 6.64648C176.625 6.04102 176.762 5.37695 177.035 4.6543C177.309 3.92188 177.675 3.24805 178.134 2.63281C178.876 1.63672 179.608 1.13867 180.331 1.13867C180.526 1.13867 180.751 1.16797 181.005 1.22656C181.532 1.33398 181.962 1.40723 182.294 1.44629C182.636 1.48535 183.026 1.50488 183.466 1.50488ZM219.721 8.8291V12.4033C219.721 14.5615 219.56 16.0898 219.237 16.9883C218.544 18.8828 217.021 20.2549 214.667 21.1045C213.241 21.6318 211.63 21.8955 209.833 21.8955C206.698 21.8955 204.188 21.1484 202.304 19.6543C201.386 18.9219 200.751 18.0723 200.399 17.1055C200.048 16.1387 199.872 14.7422 199.872 12.916C199.872 12.2031 199.896 11.0312 199.945 9.40039C199.975 8.24805 199.989 7.48633 199.989 7.11523C199.989 6.30469 199.926 5.74316 199.799 5.43066C199.682 5.11816 199.418 4.8252 199.008 4.55176C198.363 4.13184 198.041 3.66309 198.041 3.14551C198.041 2.76465 198.202 2.42773 198.524 2.13477C198.856 1.8418 199.291 1.6416 199.828 1.53418C200.902 1.31934 202.172 1.21191 203.637 1.21191C205.248 1.21191 206.586 1.33398 207.65 1.57812C208.695 1.8125 209.218 2.34473 209.218 3.1748C209.218 3.58496 209.066 3.91211 208.764 4.15625C208.695 4.21484 208.402 4.36621 207.885 4.61035C207.572 4.74707 207.357 4.99609 207.24 5.35742C207.133 5.71875 207.079 6.31445 207.079 7.14453C207.079 7.99414 207.04 9.83008 206.962 12.6523C206.913 14.332 207.367 15.6113 208.324 16.4902C209.105 17.2129 210.111 17.5742 211.342 17.5742C212.123 17.5742 212.831 17.4326 213.466 17.1494C214.101 16.8564 214.584 16.4609 214.916 15.9629C215.18 15.582 215.36 15.1572 215.458 14.6885C215.556 14.2197 215.604 13.5801 215.604 12.7695V9.54688C215.556 7.07617 215.482 5.63086 215.385 5.21094C215.297 4.78125 214.984 4.44434 214.447 4.2002C213.939 3.97559 213.593 3.77051 213.407 3.58496C213.222 3.39941 213.129 3.16992 213.129 2.89648C213.129 2.31055 213.476 1.88574 214.169 1.62207C214.872 1.34863 215.995 1.21191 217.538 1.21191C219.052 1.21191 220.146 1.34375 220.819 1.60742C221.503 1.87109 221.845 2.29102 221.845 2.86719C221.845 3.15039 221.786 3.36035 221.669 3.49707C221.552 3.63379 221.244 3.84375 220.746 4.12695C220.229 4.41992 219.931 4.7373 219.853 5.0791C219.784 5.41113 219.74 6.66113 219.721 8.8291ZM228.993 21.5H227.938C227.323 21.5 226.635 21.5293 225.873 21.5879C225.395 21.627 225.062 21.6465 224.877 21.6465C224.223 21.6465 223.69 21.4951 223.28 21.1924C222.87 20.8896 222.665 20.4941 222.665 20.0059C222.665 19.6641 222.753 19.4004 222.929 19.2148C223.114 19.0195 223.412 18.8633 223.822 18.7461C224.213 18.6484 224.477 18.4922 224.613 18.2773C224.75 18.0527 224.857 17.623 224.936 16.9883C225.014 16.2559 225.082 14.8301 225.141 12.7109C225.209 10.5918 225.243 8.4873 225.243 6.39746C225.243 5.57715 225.18 5.03027 225.053 4.75684C224.926 4.4834 224.628 4.26367 224.159 4.09766C223.485 3.84375 223.148 3.40918 223.148 2.79395C223.148 2.31543 223.378 1.94434 223.837 1.68066C224.306 1.40723 224.955 1.27051 225.785 1.27051C226.059 1.27051 226.381 1.27539 226.752 1.28516C227.572 1.31445 228.168 1.3291 228.539 1.3291C229.936 1.3291 231.513 1.28516 233.271 1.19727C233.642 1.17773 234.105 1.16797 234.662 1.16797C236.898 1.16797 238.666 1.42187 239.965 1.92969C241.898 2.69141 243.354 3.9707 244.33 5.76758C245.199 7.34961 245.634 9.23438 245.634 11.4219C245.634 12.5254 245.473 13.6338 245.15 14.7471C244.828 15.8506 244.394 16.8076 243.847 17.6182C242.714 19.2588 241.151 20.4111 239.159 21.0752C237.987 21.4658 236.737 21.6611 235.409 21.6611L233.637 21.6025L232.113 21.5586C230.932 21.5195 229.892 21.5 228.993 21.5ZM232.069 5.62109V16.959C232.069 17.5742 232.201 18.0137 232.465 18.2773C232.729 18.5312 233.168 18.6582 233.783 18.6582C236.635 18.6582 238.061 16.4902 238.061 12.1543C238.061 9.76172 237.729 7.90625 237.064 6.58789C236.332 5.13281 235.092 4.40527 233.344 4.40527C232.875 4.40527 232.543 4.49805 232.348 4.68359C232.162 4.86914 232.069 5.18164 232.069 5.62109ZM249.97 1.50488H257.499C259.022 1.50488 260.131 1.47559 260.824 1.41699C261.527 1.34863 262.211 1.2168 262.875 1.02148C263.08 0.962891 263.241 0.933594 263.358 0.933594C263.866 0.933594 264.315 1.20703 264.706 1.75391C265.351 2.64258 265.673 3.7168 265.673 4.97656C265.673 5.61133 265.536 6.11426 265.263 6.48535C264.999 6.84668 264.633 7.02734 264.164 7.02734C263.842 7.02734 263.588 6.96387 263.402 6.83691C263.227 6.7002 262.987 6.40234 262.685 5.94336C262.255 5.28906 261.708 4.85449 261.044 4.63965C260.39 4.41504 259.311 4.30273 257.807 4.30273C256.684 4.30273 256 4.50293 255.756 4.90332C255.629 5.11816 255.551 5.40625 255.521 5.76758C255.502 6.12891 255.492 7.05176 255.492 8.53613C255.492 9.12207 255.59 9.48828 255.785 9.63477C255.98 9.77148 256.493 9.83984 257.323 9.83984C257.733 9.83984 258.031 9.75684 258.217 9.59082C258.402 9.41504 258.52 9.10742 258.568 8.66797C258.637 8.10156 258.705 7.71582 258.773 7.51074C258.852 7.2959 258.988 7.11035 259.184 6.9541C259.389 6.77832 259.628 6.69043 259.901 6.69043C260.302 6.69043 260.644 6.88086 260.927 7.26172C261.132 7.54492 261.303 8.04785 261.439 8.77051C261.586 9.4834 261.659 10.2305 261.659 11.0117C261.659 12.5547 261.42 13.8193 260.941 14.8057C260.678 15.3428 260.277 15.6113 259.74 15.6113C259.408 15.6113 259.179 15.5283 259.052 15.3623C258.925 15.1865 258.827 14.8301 258.759 14.293C258.612 13.1895 257.968 12.6377 256.825 12.6377C256.386 12.6377 256.083 12.7793 255.917 13.0625C255.761 13.3359 255.683 13.8486 255.683 14.6006C255.683 15.0596 255.712 15.6553 255.771 16.3877C255.839 17.1104 255.907 17.5889 255.976 17.8232C256.054 18.1162 256.293 18.3213 256.693 18.4385C257.104 18.5459 257.782 18.5996 258.729 18.5996C260.194 18.5996 261.298 18.4141 262.04 18.043C262.782 17.6621 263.388 16.9785 263.856 15.9922C264.13 15.4258 264.374 15.0449 264.589 14.8496C264.813 14.6543 265.102 14.5566 265.453 14.5566C265.863 14.5566 266.2 14.7373 266.464 15.0986C266.737 15.4502 266.874 15.8945 266.874 16.4316C266.874 17.0176 266.723 17.75 266.42 18.6289C266.117 19.5078 265.746 20.2891 265.307 20.9727C265.082 21.3047 264.896 21.5244 264.75 21.6318C264.604 21.749 264.418 21.8076 264.193 21.8076C264.008 21.8076 263.739 21.7783 263.388 21.7197C262.763 21.6025 261.928 21.5293 260.883 21.5H248.461C247.963 21.5 247.577 21.3926 247.304 21.1777C247.03 20.9531 246.894 20.6406 246.894 20.2402C246.894 19.957 246.952 19.752 247.069 19.625C247.187 19.498 247.455 19.3369 247.875 19.1416C248.168 19.0146 248.383 18.8584 248.52 18.6729C248.666 18.4873 248.778 18.2139 248.856 17.8525C249.179 16.3779 249.34 14.3906 249.34 11.8906C249.34 8.12109 249.105 5.74316 248.637 4.75684C248.539 4.56152 248.432 4.4248 248.314 4.34668C248.197 4.26855 247.953 4.17578 247.582 4.06836C247.025 3.90234 246.747 3.53125 246.747 2.95508C246.747 2.64258 246.84 2.36426 247.025 2.12012C247.211 1.87598 247.455 1.71484 247.758 1.63672C248.139 1.54883 248.876 1.50488 249.97 1.50488ZM31.0488 48.6006V40.8955C31.0488 39.8994 30.9805 39.2695 30.8438 39.0059C30.707 38.7324 30.3359 38.5127 29.7305 38.3467C28.8516 38.0928 28.4121 37.6533 28.4121 37.0283C28.4121 36.5889 28.5977 36.252 28.9688 36.0176C29.3398 35.7832 29.877 35.666 30.5801 35.666C30.8145 35.666 31.3955 35.6807 32.3232 35.71H33.2021C34.8232 35.7002 35.7705 35.6904 36.0439 35.6807C36.3271 35.6611 37.3232 35.5732 39.0322 35.417C39.5986 35.3584 40.1162 35.3291 40.585 35.3291C42.1865 35.3291 43.6123 35.6562 44.8623 36.3105C47.04 37.4434 48.1289 39.2402 48.1289 41.7012C48.1289 43.6934 47.3672 45.29 45.8438 46.4912C44.4082 47.6143 42.6699 48.1758 40.6289 48.1758C40.1113 48.1758 39.4766 48.1416 38.7246 48.0732C38.3242 48.0439 38.0752 48.0293 37.9775 48.0293C37.6943 48.0293 37.5527 48.1904 37.5527 48.5127V48.6006L37.6553 51.0029C37.6748 51.4717 37.7578 51.8232 37.9043 52.0576C38.0605 52.2822 38.373 52.5166 38.8418 52.7607C39.4766 53.1025 39.7939 53.4736 39.7939 53.874C39.7939 54.4893 39.3252 54.9629 38.3877 55.2949C37.4502 55.627 36.1221 55.793 34.4033 55.793C30.79 55.793 28.9834 55.1729 28.9834 53.9326C28.9834 53.6396 29.0615 53.415 29.2178 53.2588C29.374 53.1025 29.7402 52.8779 30.3164 52.585C30.668 52.3994 30.873 52.1406 30.9316 51.8086C30.9902 51.4766 31.0293 50.4072 31.0488 48.6006ZM37.6553 39.0352V44.0156C37.6553 44.3965 37.7383 44.626 37.9043 44.7041C38.1875 44.8408 38.5439 44.9092 38.9736 44.9092C39.6182 44.9092 40.1602 44.7285 40.5996 44.3672C41.2344 43.8496 41.5518 42.9805 41.5518 41.7598C41.5518 40.4902 41.1807 39.5723 40.4385 39.0059C39.9697 38.6445 39.4033 38.4639 38.7393 38.4639C38.0166 38.4639 37.6553 38.6543 37.6553 39.0352ZM57.4746 43.8838V48.5859C57.4746 50.666 57.5039 51.877 57.5625 52.2188C57.6309 52.5605 57.875 52.8242 58.2949 53.0098C58.6562 53.166 58.8955 53.3125 59.0127 53.4492C59.1396 53.5859 59.2031 53.7812 59.2031 54.0352C59.2031 54.3574 59.0859 54.6504 58.8516 54.9141C58.627 55.1777 58.3242 55.3633 57.9434 55.4707C57.2402 55.6855 56.0537 55.793 54.3838 55.793C52.499 55.793 51.1758 55.6514 50.4141 55.3682C50.0625 55.2412 49.7744 55.0459 49.5498 54.7822C49.3252 54.5088 49.2129 54.2256 49.2129 53.9326C49.2129 53.6982 49.2715 53.5176 49.3887 53.3906C49.5156 53.2637 49.7842 53.1123 50.1943 52.9365C50.5752 52.7705 50.8096 52.3164 50.8975 51.5742C51.0537 50.3047 51.1318 48.498 51.1318 46.1543C51.1318 43.7715 51.0635 42.2383 50.9268 41.5547C50.79 40.8711 50.4482 40.3633 49.9014 40.0312C49.4912 39.7969 49.208 39.5771 49.0518 39.3721C48.9053 39.1572 48.832 38.8984 48.832 38.5957C48.832 38.1172 49.0615 37.7021 49.5205 37.3506C49.9795 36.9893 50.7119 36.6572 51.7178 36.3545C52.3916 36.1494 53.2656 35.9541 54.3398 35.7686C55.4141 35.583 56.1953 35.4902 56.6836 35.4902C57.4551 35.4902 57.8408 35.9688 57.8408 36.9258C57.8408 37.2383 57.792 37.9561 57.6943 39.0791C57.5674 40.8271 57.4941 42.4287 57.4746 43.8838ZM68.4316 40.8955C70.1309 40.8955 71.5713 41.3252 72.7529 42.1846C73.3779 42.6436 73.8125 43.1709 74.0566 43.7666C74.3105 44.3525 74.4375 45.1631 74.4375 46.1982L74.4082 48.3809C74.4082 49.8945 74.5156 50.876 74.7305 51.3252C74.8379 51.54 74.9404 51.6768 75.0381 51.7354C75.1357 51.7939 75.3408 51.8477 75.6533 51.8965C75.9658 51.9453 76.1221 52.1504 76.1221 52.5117C76.1221 52.9805 75.9316 53.4688 75.5508 53.9766C75.1797 54.4844 74.6963 54.9092 74.1006 55.251C73.3682 55.6807 72.6016 55.8955 71.8008 55.8955C70.7754 55.8955 69.9648 55.5439 69.3691 54.8408C69.1641 54.5869 68.9736 54.46 68.7979 54.46C68.6025 54.46 68.3438 54.582 68.0215 54.8262C67.0449 55.5391 65.9365 55.8955 64.6963 55.8955C63.417 55.8955 62.3818 55.6221 61.5908 55.0752C61.0732 54.7139 60.6631 54.2451 60.3604 53.6689C60.0576 53.083 59.9062 52.4727 59.9062 51.8379C59.9062 50.8223 60.3164 49.9238 61.1367 49.1426C62.416 47.9121 64.3301 47.292 66.8789 47.2822C67.4453 47.2822 67.8018 47.2285 67.9482 47.1211C68.0947 47.0039 68.168 46.7402 68.168 46.3301C68.168 45.2949 68.0605 44.5479 67.8457 44.0889C67.6309 43.6201 67.2793 43.3857 66.791 43.3857C66.498 43.3857 66.2344 43.4736 66 43.6494C65.7754 43.8252 65.4922 44.1475 65.1504 44.6162C64.2812 45.8564 63.373 46.4766 62.4258 46.4766C61.9473 46.4766 61.5566 46.335 61.2539 46.0518C60.9512 45.7686 60.7998 45.3975 60.7998 44.9385C60.7998 44.4697 60.9854 44.001 61.3564 43.5322C61.7373 43.0635 62.25 42.6533 62.8945 42.3018C64.6621 41.3643 66.5078 40.8955 68.4316 40.8955ZM67.4502 49.377C67.0205 49.377 66.6445 49.5527 66.3223 49.9043C66.0098 50.2559 65.8535 50.6758 65.8535 51.1641C65.8535 51.6328 65.9658 52.0137 66.1904 52.3066C66.415 52.5898 66.7129 52.7314 67.084 52.7314C67.8652 52.7314 68.2559 52.0723 68.2559 50.7539C68.2559 50.2168 68.1973 49.8555 68.0801 49.6699C67.9727 49.4844 67.7627 49.3867 67.4502 49.377ZM90.1992 48.1172L88.2656 53.4346C87.7871 54.7529 87.3037 55.8271 86.8154 56.6572C86.3369 57.4971 85.79 58.21 85.1748 58.7959C83.9053 60.0068 82.377 60.6123 80.5898 60.6123C79.1445 60.6123 77.9727 60.2314 77.0742 59.4697C76.3809 58.8838 76.0342 58.1367 76.0342 57.2285C76.0342 56.4766 76.2734 55.8467 76.752 55.3389C77.2402 54.8213 77.8359 54.5625 78.5391 54.5625C79.2422 54.5625 79.8086 54.7969 80.2383 55.2656C80.4434 55.4805 80.5801 55.6709 80.6484 55.8369C80.7168 56.0029 80.8193 56.3691 80.9561 56.9355C81.0635 57.3652 81.3076 57.5801 81.6885 57.5801C81.9912 57.5801 82.2451 57.4482 82.4502 57.1846C82.6553 56.9209 82.7578 56.5938 82.7578 56.2031C82.7578 55.7441 82.5039 54.9775 81.9961 53.9033L78.4658 46.3887C78.0947 45.6074 77.8164 45.1191 77.6309 44.9238C77.4453 44.7285 77.0352 44.4893 76.4004 44.2061C76.2051 44.1279 76.0342 43.9766 75.8877 43.752C75.751 43.5176 75.6826 43.293 75.6826 43.0781C75.6826 42.209 76.5469 41.6182 78.2754 41.3057C79.4277 41.1006 80.7412 40.998 82.2158 40.998C83.251 40.998 84.0664 41.1055 84.6621 41.3203C85.4629 41.6035 85.8633 42.0869 85.8633 42.7705C85.8633 43.0146 85.751 43.3027 85.5264 43.6348C85.3115 43.9473 85.2041 44.2256 85.2041 44.4697C85.2041 44.7041 85.2529 44.9482 85.3506 45.2021C85.458 45.4561 85.6777 45.8857 86.0098 46.4912C86.3809 47.1748 86.708 47.5166 86.9912 47.5166C87.2939 47.5166 87.6064 47.2188 87.9287 46.623C88.251 46.0176 88.4121 45.4365 88.4121 44.8799C88.4121 44.4307 88.29 44.0645 88.0459 43.7812C87.6748 43.3418 87.4893 42.9658 87.4893 42.6533C87.4893 42.1553 87.8213 41.7598 88.4854 41.4668C89.1494 41.1641 90.0381 41.0127 91.1514 41.0127C93.2217 41.0127 94.2568 41.5107 94.2568 42.5068C94.2568 42.8682 94.1494 43.1611 93.9346 43.3857C93.7295 43.6006 93.3486 43.8057 92.792 44.001C92.3232 44.1768 91.9521 44.4697 91.6787 44.8799C91.249 45.5342 90.7559 46.6133 90.1992 48.1172ZM116.273 48.1172L114.34 53.4346C113.861 54.7529 113.378 55.8271 112.89 56.6572C112.411 57.4971 111.864 58.21 111.249 58.7959C109.979 60.0068 108.451 60.6123 106.664 60.6123C105.219 60.6123 104.047 60.2314 103.148 59.4697C102.455 58.8838 102.108 58.1367 102.108 57.2285C102.108 56.4766 102.348 55.8467 102.826 55.3389C103.314 54.8213 103.91 54.5625 104.613 54.5625C105.316 54.5625 105.883 54.7969 106.312 55.2656C106.518 55.4805 106.654 55.6709 106.723 55.8369C106.791 56.0029 106.894 56.3691 107.03 56.9355C107.138 57.3652 107.382 57.5801 107.763 57.5801C108.065 57.5801 108.319 57.4482 108.524 57.1846C108.729 56.9209 108.832 56.5938 108.832 56.2031C108.832 55.7441 108.578 54.9775 108.07 53.9033L104.54 46.3887C104.169 45.6074 103.891 45.1191 103.705 44.9238C103.52 44.7285 103.109 44.4893 102.475 44.2061C102.279 44.1279 102.108 43.9766 101.962 43.752C101.825 43.5176 101.757 43.293 101.757 43.0781C101.757 42.209 102.621 41.6182 104.35 41.3057C105.502 41.1006 106.815 40.998 108.29 40.998C109.325 40.998 110.141 41.1055 110.736 41.3203C111.537 41.6035 111.938 42.0869 111.938 42.7705C111.938 43.0146 111.825 43.3027 111.601 43.6348C111.386 43.9473 111.278 44.2256 111.278 44.4697C111.278 44.7041 111.327 44.9482 111.425 45.2021C111.532 45.4561 111.752 45.8857 112.084 46.4912C112.455 47.1748 112.782 47.5166 113.065 47.5166C113.368 47.5166 113.681 47.2188 114.003 46.623C114.325 46.0176 114.486 45.4365 114.486 44.8799C114.486 44.4307 114.364 44.0645 114.12 43.7812C113.749 43.3418 113.563 42.9658 113.563 42.6533C113.563 42.1553 113.896 41.7598 114.56 41.4668C115.224 41.1641 116.112 41.0127 117.226 41.0127C119.296 41.0127 120.331 41.5107 120.331 42.5068C120.331 42.8682 120.224 43.1611 120.009 43.3857C119.804 43.6006 119.423 43.8057 118.866 44.001C118.397 44.1768 118.026 44.4697 117.753 44.8799C117.323 45.5342 116.83 46.6133 116.273 48.1172ZM128.783 40.8955C130.57 40.8955 132.138 41.3594 133.485 42.2871C134.452 42.9512 135.229 43.8154 135.814 44.8799C136.42 45.9932 136.723 47.1553 136.723 48.3662C136.723 50.4854 135.751 52.2871 133.808 53.7715C131.952 55.1875 129.828 55.8955 127.436 55.8955C125.102 55.8955 123.212 55.2314 121.767 53.9033C120.36 52.6143 119.657 50.9346 119.657 48.8643C119.657 46.5596 120.517 44.6748 122.235 43.21C124.032 41.667 126.215 40.8955 128.783 40.8955ZM127.611 44.2793C127.182 44.2793 126.835 44.4404 126.571 44.7627C126.317 45.0752 126.19 45.4951 126.19 46.0225C126.19 46.6084 126.298 47.4092 126.513 48.4248C126.737 49.4307 127.001 50.3242 127.304 51.1055C127.606 51.9062 128.1 52.3066 128.783 52.3066C129.652 52.3066 130.087 51.7549 130.087 50.6514C130.087 49.8311 129.975 48.8984 129.75 47.8535C129.535 46.8086 129.271 45.959 128.959 45.3047C128.637 44.6406 128.188 44.2988 127.611 44.2793ZM145.819 41.7451V49.6846C145.819 51.3838 146.381 52.2334 147.504 52.2334C147.787 52.2334 148.065 52.1553 148.339 51.999C148.612 51.833 148.803 51.6328 148.91 51.3984C149.125 50.9297 149.232 49.8848 149.232 48.2637C149.232 46.6621 149.179 45.5684 149.071 44.9824C149.032 44.7383 148.964 44.5625 148.866 44.4551C148.769 44.3379 148.583 44.2061 148.31 44.0596C147.753 43.7666 147.475 43.3955 147.475 42.9463C147.475 42.3408 147.953 41.9209 148.91 41.6865C150.727 41.2373 152.519 41.0127 154.286 41.0127C155.272 41.0127 155.766 41.5352 155.766 42.5801C155.766 42.6875 155.761 42.9072 155.751 43.2393C155.731 43.708 155.717 44.2793 155.707 44.9531V51.4131C155.707 51.7451 155.99 52.0479 156.557 52.3213C157.035 52.5557 157.274 52.8975 157.274 53.3467C157.274 54.2256 156.234 54.9043 154.154 55.3828C152.934 55.666 151.752 55.8076 150.609 55.8076C150.141 55.8076 149.818 55.7539 149.643 55.6465C149.477 55.5391 149.379 55.3291 149.35 55.0166C149.301 54.4111 149.115 54.1084 148.793 54.1084C148.676 54.1084 148.568 54.1377 148.471 54.1963C148.373 54.2451 148.075 54.4404 147.577 54.7822C146.591 55.4561 145.531 55.793 144.398 55.793C142.523 55.793 141.2 55.251 140.429 54.167C139.774 53.2588 139.447 51.7305 139.447 49.582C139.447 48.7812 139.452 48.0977 139.462 47.5312C139.462 47.1992 139.462 46.9746 139.462 46.8574C139.462 46.0176 139.384 45.4023 139.228 45.0117C139.081 44.6113 138.808 44.2988 138.407 44.0742C138.026 43.8789 137.782 43.7227 137.675 43.6055C137.577 43.4883 137.528 43.3271 137.528 43.1221C137.528 42.3799 138.09 41.8867 139.213 41.6426C141.127 41.2227 143.041 41.0127 144.955 41.0127C145.531 41.0127 145.819 41.2568 145.819 41.7451ZM164.965 40.998C165.482 40.998 165.795 41.0713 165.902 41.2178C166.02 41.3643 166.122 41.833 166.21 42.624C166.259 43.0537 166.41 43.2686 166.664 43.2686C166.859 43.2686 167.045 43.127 167.221 42.8438C168.002 41.623 169.022 41.0127 170.282 41.0127C171.171 41.0127 171.898 41.3008 172.465 41.877C172.738 42.1602 172.963 42.5264 173.139 42.9756C173.314 43.415 173.402 43.8398 173.402 44.25C173.402 44.709 173.295 45.1826 173.08 45.6709C172.865 46.1494 172.587 46.5449 172.245 46.8574C171.62 47.4531 170.854 47.751 169.945 47.751C169.447 47.751 169.027 47.6631 168.686 47.4873C168.354 47.3115 167.914 46.9551 167.367 46.418C167.162 46.2129 166.972 46.1104 166.796 46.1104C166.522 46.1104 166.342 46.2666 166.254 46.5791C166.176 46.8818 166.137 47.5264 166.137 48.5127C166.137 49.9873 166.19 50.9932 166.298 51.5303C166.366 51.8232 166.459 52.0283 166.576 52.1455C166.703 52.2529 166.967 52.3652 167.367 52.4824C168.246 52.7461 168.686 53.2051 168.686 53.8594C168.686 54.2598 168.544 54.6113 168.261 54.9141C167.978 55.207 167.602 55.4023 167.133 55.5C166.195 55.6953 164.818 55.793 163.002 55.793C161.273 55.793 159.96 55.6416 159.062 55.3389C158.261 55.0654 157.86 54.5918 157.86 53.918C157.86 53.4102 158.153 52.9561 158.739 52.5557C159.022 52.3701 159.218 52.2041 159.325 52.0576C159.433 51.9014 159.506 51.6914 159.545 51.4277C159.701 50.5391 159.779 48.8936 159.779 46.4912C159.779 46.0518 159.73 45.7393 159.633 45.5537C159.535 45.3584 159.34 45.2021 159.047 45.085C158.354 44.8115 158.007 44.416 158.007 43.8984C158.007 43.4297 158.246 43.0293 158.725 42.6973C159.203 42.3555 160.004 42.0186 161.127 41.6865C162.631 41.2373 163.91 41.0078 164.965 40.998ZM191.127 41.9062V48.6299C191.127 50.1436 191.259 51.1201 191.522 51.5596C191.845 52.0771 192.523 52.3359 193.559 52.3359C194.672 52.3359 195.551 52.0918 196.195 51.6035C196.84 51.1152 197.289 50.3535 197.543 49.3184C197.689 48.6836 198.021 48.3662 198.539 48.3662C199.057 48.3662 199.477 48.6006 199.799 49.0693C200.131 49.5283 200.297 50.1289 200.297 50.8711C200.297 52.082 199.848 53.376 198.949 54.7529C198.666 55.1924 198.417 55.4902 198.202 55.6465C197.987 55.8125 197.729 55.8955 197.426 55.8955L194.174 55.5H183.935C183.261 55.5 182.787 55.4219 182.514 55.2656C182.113 55.041 181.913 54.7041 181.913 54.2549C181.913 53.9814 181.977 53.7812 182.104 53.6543C182.24 53.5176 182.562 53.3271 183.07 53.083C183.627 52.8193 183.983 52.4482 184.14 51.9697C184.267 51.5693 184.33 50.4023 184.33 48.4688C184.33 47.5703 184.306 46.2764 184.257 44.5869C184.208 42.9658 184.179 41.7451 184.169 40.9248C184.169 40.1436 184.105 39.6113 183.979 39.3281C183.861 39.0352 183.607 38.8252 183.217 38.6982C182.572 38.4736 182.162 38.293 181.986 38.1562C181.674 37.9121 181.518 37.6338 181.518 37.3213C181.518 36.6084 182.108 36.0664 183.29 35.6953C184.296 35.373 185.644 35.2119 187.333 35.2119C189.228 35.2119 190.644 35.3096 191.581 35.5049C192.792 35.7686 193.397 36.2959 193.397 37.0869C193.397 37.4092 193.314 37.6484 193.148 37.8047C192.992 37.9609 192.602 38.1709 191.977 38.4346C191.605 38.6006 191.371 38.8838 191.273 39.2842C191.176 39.6846 191.127 40.5586 191.127 41.9062ZM208.808 41.9209V50.4316C208.808 51.1055 208.866 51.5986 208.983 51.9111C209.11 52.2236 209.359 52.5117 209.73 52.7754C210.033 52.9902 210.233 53.1758 210.331 53.332C210.438 53.4785 210.492 53.6689 210.492 53.9033C210.492 55.1631 208.896 55.793 205.702 55.793C203.983 55.793 202.621 55.6562 201.615 55.3828C201.273 55.2852 200.995 55.1143 200.78 54.8701C200.575 54.626 200.473 54.3477 200.473 54.0352C200.473 53.7715 200.526 53.5664 200.634 53.4199C200.741 53.2734 201.015 53.0391 201.454 52.7168C201.757 52.4922 201.972 52.126 202.099 51.6182C202.226 51.1104 202.289 50.3535 202.289 49.3477C202.289 49.0254 202.265 48.4248 202.216 47.5459C202.177 46.6572 202.147 46.1396 202.128 45.9932C202.069 45.5928 201.796 45.2852 201.308 45.0703C200.702 44.8066 200.399 44.416 200.399 43.8984C200.399 43.2832 200.795 42.8242 201.586 42.5215C202.68 42.1016 203.852 41.7451 205.102 41.4521C206.352 41.1592 207.318 41.0127 208.002 41.0127C208.539 41.0127 208.808 41.3154 208.808 41.9209ZM205.907 35.5049C206.757 35.5049 207.431 35.666 207.929 35.9883C208.427 36.3008 208.676 36.7256 208.676 37.2627C208.676 38.0146 208.3 38.6104 207.548 39.0498C206.356 39.7432 204.916 40.0898 203.227 40.0898C202.514 40.0898 201.947 39.9531 201.527 39.6797C200.961 39.3281 200.678 38.8398 200.678 38.2148C200.678 37.375 201.278 36.7158 202.479 36.2373C203.7 35.749 204.843 35.5049 205.907 35.5049ZM219.984 43.6348H221.801C222.104 43.6348 222.318 43.6836 222.445 43.7812C222.582 43.8691 222.641 44.0205 222.621 44.2354L222.504 45.9785C222.484 46.3301 222.431 46.5547 222.343 46.6523C222.255 46.7402 222.06 46.7842 221.757 46.7842C221.688 46.7842 221.527 46.7744 221.273 46.7549C221.098 46.7451 220.951 46.7402 220.834 46.7402C220.424 46.7402 220.146 46.877 219.999 47.1504C219.853 47.4141 219.779 47.9219 219.779 48.6738C219.779 49.6992 219.892 50.5635 220.116 51.2666C220.204 51.5693 220.331 51.7939 220.497 51.9404C220.663 52.0771 220.937 52.1992 221.317 52.3066C222.177 52.5605 222.606 53.0342 222.606 53.7275C222.606 54.46 222.104 54.9873 221.098 55.3096C220.102 55.6318 218.461 55.793 216.176 55.793C212.787 55.793 211.093 55.1191 211.093 53.7715C211.093 53.4395 211.161 53.1953 211.298 53.0391C211.444 52.8828 211.757 52.7021 212.235 52.4971C212.753 52.2627 213.065 51.8281 213.173 51.1934C213.339 50.2363 213.422 49.2109 213.422 48.1172C213.422 47.6289 213.334 47.292 213.158 47.1064C212.992 46.9111 212.685 46.8184 212.235 46.8281C211.708 46.8281 211.371 46.8037 211.225 46.7549C211.078 46.6963 211.01 46.5645 211.02 46.3594L211.137 44.5137C211.156 44.2109 211.205 44.0254 211.283 43.957C211.371 43.8789 211.605 43.8301 211.986 43.8105C212.348 43.791 212.528 43.6152 212.528 43.2832C212.528 43.1465 212.396 42.834 212.133 42.3457C211.684 41.5352 211.459 40.7246 211.459 39.9141C211.459 38.7227 211.869 37.751 212.689 36.999C213.891 35.8955 215.614 35.3438 217.86 35.3438C219.706 35.3438 221.181 35.7783 222.284 36.6475C223.134 37.3213 223.559 38.0977 223.559 38.9766C223.559 39.6113 223.349 40.1484 222.929 40.5879C222.509 41.0176 221.986 41.2324 221.361 41.2324C220.658 41.2324 219.984 40.9883 219.34 40.5C219.184 40.373 218.812 39.9873 218.227 39.3428C217.807 38.8936 217.387 38.6689 216.967 38.6689C216.693 38.6689 216.459 38.7666 216.264 38.9619C216.068 39.1572 215.971 39.3965 215.971 39.6797C215.971 40.4512 216.703 41.2764 218.168 42.1553C218.617 42.4287 218.92 42.6436 219.076 42.7998C219.242 42.9561 219.389 43.1758 219.516 43.459C219.584 43.5762 219.74 43.6348 219.984 43.6348ZM237.167 48.9375H230.282C229.979 48.9375 229.828 49.0693 229.828 49.333C229.828 49.9678 230.17 50.5684 230.854 51.1348C231.547 51.6914 232.289 51.9697 233.08 51.9697C233.549 51.9697 234.066 51.8818 234.633 51.7061C235.209 51.5205 235.683 51.2959 236.054 51.0322C236.386 50.7979 236.649 50.6807 236.845 50.6807C237.099 50.6807 237.348 50.8369 237.592 51.1494C237.836 51.4619 237.958 51.7842 237.958 52.1162C237.958 52.8193 237.519 53.498 236.64 54.1523C235.087 55.3145 233.295 55.8955 231.264 55.8955C229.213 55.8955 227.494 55.2998 226.107 54.1084C225.434 53.5225 224.877 52.8145 224.438 51.9844C223.861 50.8809 223.573 49.7188 223.573 48.498C223.573 46.8574 224.071 45.3828 225.067 44.0742C225.927 42.9414 227.021 42.0967 228.349 41.54C229.345 41.1201 230.424 40.9102 231.586 40.9102C233.441 40.9102 235.019 41.4375 236.317 42.4922C236.972 43.0195 237.499 43.6445 237.899 44.3672C238.358 45.1875 238.588 45.9883 238.588 46.7695C238.588 47.4043 238.456 47.9268 238.192 48.3369C237.929 48.7373 237.587 48.9375 237.167 48.9375ZM230.663 46.1982H232.143C232.768 46.1982 233.08 45.9102 233.08 45.334C233.08 44.8066 232.929 44.377 232.626 44.0449C232.323 43.7129 231.928 43.5469 231.439 43.5469C230.893 43.5469 230.463 43.7617 230.15 44.1914C229.857 44.5918 229.711 44.9971 229.711 45.4072C229.711 45.7002 229.779 45.9053 229.916 46.0225C230.062 46.1396 230.312 46.1982 230.663 46.1982Z" fill="white"></path></svg>