<?xml version="1.0" encoding="UTF-8"?> <svg xmlns="http://www.w3.org/2000/svg" width="129" height="32" viewBox="0 0 129 32" fill="none"><path d="M45 12C45 9.79086 46.7909 8 49 8H120C122.209 8 124 9.79086 124 12V22C124 24.2091 122.209 26 120 26H113.48C112.525 26 111.602 26.3416 110.877 26.963L107.515 29.8441C106.056 31.0948 103.914 31.1311 102.413 29.9306L98.5957 26.8765C97.8864 26.3091 97.0052 26 96.0969 26H49C46.7909 26 45 24.2091 45 22V12Z" fill="#111111" fill-opacity="0.9"></path><path d="M54.2671 20.12C55.3271 20.12 56.2471 19.67 56.8571 18.95L56.1971 18.39C55.7371 18.93 55.0371 19.28 54.2671 19.28C52.8171 19.28 51.6771 18.04 51.6771 16.57C51.6771 15.09 52.8171 13.83 54.2671 13.83C55.0371 13.83 55.7371 14.18 56.1971 14.72L56.8571 14.16C56.2471 13.44 55.3271 12.99 54.2671 12.99C52.3171 12.99 50.7671 14.62 50.7671 16.57C50.7671 18.52 52.3171 20.12 54.2671 20.12ZM58.6116 20V12.79H57.7416V20H58.6116ZM60.3545 14.19C60.6945 14.19 60.9745 13.94 60.9745 13.61C60.9745 13.28 60.6945 13.03 60.3545 13.03C60.0245 13.03 59.7445 13.28 59.7445 13.61C59.7445 13.94 60.0245 14.19 60.3545 14.19ZM60.7945 20V15.33H59.9245V20H60.7945ZM64.2873 20.12C65.0173 20.12 65.6573 19.84 66.0673 19.38L65.5173 18.81C65.2273 19.11 64.8073 19.3 64.3173 19.3C63.3973 19.3 62.6573 18.62 62.6573 17.66C62.6573 16.7 63.3973 16.03 64.3173 16.03C64.8073 16.03 65.2273 16.22 65.5173 16.52L66.0673 15.95C65.6573 15.5 65.0173 15.21 64.2873 15.21C62.9473 15.21 61.7773 16.18 61.7773 17.66C61.7773 19.14 62.9473 20.12 64.2873 20.12ZM68.6659 17.35L70.6659 15.33H69.4559L67.8359 16.98V12.79H66.9659V20H67.8359V17.72L69.9859 20H71.1559L68.6659 17.35ZM75.0029 15.33V13.57H74.1329V15.33H73.2929V16.08H74.1329V20H75.0029V16.08H76.0129V15.33H75.0029ZM79.2058 15.21C78.6958 15.21 77.9358 15.47 77.6558 16.04V12.79H76.7858V20H77.6558V17.47C77.6558 16.46 78.4358 16.07 79.0858 16.07C79.7358 16.07 80.2158 16.57 80.2158 17.35V20H81.0858V17.3C81.0958 15.99 80.3658 15.21 79.2058 15.21ZM86.7477 17.65C86.7477 16.17 85.7577 15.21 84.4277 15.21C83.0977 15.21 82.0277 16.17 82.0277 17.65C82.0277 19.13 83.0977 20.12 84.4277 20.12C85.3277 20.12 86.1677 19.68 86.5677 18.87L85.8177 18.57C85.5477 19.04 85.0277 19.3 84.4577 19.3C83.6577 19.3 83.0577 18.87 82.9277 18.04H86.7277C86.7377 17.91 86.7477 17.78 86.7477 17.65ZM82.9377 17.29C83.0777 16.45 83.6377 16.03 84.4277 16.03C85.1977 16.03 85.7677 16.49 85.8777 17.29H82.9377ZM92.6027 15.21C91.9027 15.21 91.2427 15.51 90.9327 16.06V12.79H90.0627V20H90.9327V19.27C91.2427 19.8 91.9227 20.12 92.5927 20.12C93.8727 20.12 94.9327 19.13 94.9327 17.66C94.9327 16.18 93.8827 15.21 92.6027 15.21ZM92.5127 19.3C91.6827 19.3 90.9327 18.65 90.9327 17.65C90.9327 16.64 91.7527 16.03 92.5127 16.03C93.3727 16.03 94.0527 16.71 94.0527 17.65C94.0527 18.58 93.3727 19.3 92.5127 19.3ZM99.3167 17.9C99.3067 18.91 98.5267 19.3 97.8767 19.3C97.2267 19.3 96.7567 18.8 96.7567 18.01V15.33H95.8867V18.03C95.8767 19.34 96.5967 20.12 97.7667 20.12C98.2867 20.12 99.0367 19.86 99.3167 19.27V20H100.187V15.33H99.3167V17.9ZM102.729 15.33V13.57H101.859V15.33H101.019V16.08H101.859V20H102.729V16.08H103.739V15.33H102.729ZM105.742 15.33V13.57H104.872V15.33H104.032V16.08H104.872V20H105.742V16.08H106.752V15.33H105.742ZM109.547 20.12C110.877 20.12 111.997 19.14 111.997 17.66C111.997 16.18 110.877 15.21 109.547 15.21C108.217 15.21 107.107 16.18 107.107 17.66C107.107 19.14 108.217 20.12 109.547 20.12ZM109.547 19.3C108.697 19.3 107.987 18.63 107.987 17.66C107.987 16.7 108.697 16.03 109.547 16.03C110.407 16.03 111.127 16.7 111.127 17.66C111.127 18.63 110.407 19.3 109.547 19.3ZM115.428 15.21C114.918 15.21 114.158 15.47 113.878 16.04V15.33H113.008V20H113.878V17.47C113.878 16.46 114.658 16.07 115.308 16.07C115.958 16.07 116.438 16.57 116.438 17.35V20H117.308V17.3C117.318 15.99 116.588 15.21 115.428 15.21Z" fill="white"></path></svg> 