<?xml version="1.0" encoding="UTF-8"?> <svg xmlns="http://www.w3.org/2000/svg" width="34" height="22" viewBox="0 0 34 22" fill="none"><path d="M0 2C0 0.895431 0.895431 0 2 0H31.5C32.6046 0 33.5 0.895431 33.5 2V14C33.5 15.1046 32.6046 16 31.5 16H25.7398C25.2624 16 24.8008 16.1708 24.4383 16.4815L19.2576 20.9221C18.528 21.5474 17.4569 21.5655 16.7066 20.9653L11.0478 16.4383C10.6932 16.1546 10.2526 16 9.79844 16H2C0.89543 16 0 15.1046 0 14V2Z" fill="#111111" fill-opacity="0.95"></path><path d="M8.78 11.12C9.84 11.12 10.76 10.67 11.37 9.95L10.71 9.39C10.25 9.93 9.55 10.28 8.78 10.28C7.33 10.28 6.19 9.04 6.19 7.57C6.19 6.09 7.33 4.83 8.78 4.83C9.55 4.83 10.25 5.18 10.71 5.72L11.37 5.16C10.76 4.44 9.84 3.99 8.78 3.99C6.83 3.99 5.28 5.62 5.28 7.57C5.28 9.52 6.83 11.12 8.78 11.12ZM13.1245 11V3.79H12.2545V11H13.1245ZM16.5573 11.12C17.8873 11.12 19.0073 10.14 19.0073 8.66C19.0073 7.18 17.8873 6.21 16.5573 6.21C15.2273 6.21 14.1173 7.18 14.1173 8.66C14.1173 10.14 15.2273 11.12 16.5573 11.12ZM16.5573 10.3C15.7073 10.3 14.9973 9.63 14.9973 8.66C14.9973 7.7 15.7073 7.03 16.5573 7.03C17.4173 7.03 18.1373 7.7 18.1373 8.66C18.1373 9.63 17.4173 10.3 16.5573 10.3ZM21.3886 11.12C22.3586 11.12 23.1986 10.57 23.1986 9.7C23.1986 9.17 22.9486 8.59 21.9786 8.35L21.2886 8.18C20.9886 8.11 20.6886 7.94 20.6886 7.62C20.6886 7.26 20.9886 6.97 21.4386 6.97C21.8086 6.97 22.1786 7.21 22.1886 7.57H23.0286C23.0286 6.63 22.2086 6.21 21.4186 6.21C20.4786 6.21 19.8186 6.82 19.8186 7.59C19.8186 8.34 20.2686 8.72 21.0486 8.93L21.6886 9.08C22.0586 9.16 22.3286 9.34 22.3286 9.69C22.3286 10.07 21.9786 10.36 21.3886 10.36C20.8186 10.36 20.4686 10.03 20.4586 9.63H19.6486C19.6886 10.59 20.5486 11.12 21.3886 11.12ZM28.5743 8.65C28.5743 7.17 27.5843 6.21 26.2543 6.21C24.9243 6.21 23.8543 7.17 23.8543 8.65C23.8543 10.13 24.9243 11.12 26.2543 11.12C27.1543 11.12 27.9943 10.68 28.3943 9.87L27.6443 9.57C27.3743 10.04 26.8543 10.3 26.2843 10.3C25.4843 10.3 24.8843 9.87 24.7543 9.04H28.5543C28.5643 8.91 28.5743 8.78 28.5743 8.65ZM24.7643 8.29C24.9043 7.45 25.4643 7.03 26.2543 7.03C27.0243 7.03 27.5943 7.49 27.7043 8.29H24.7643Z" fill="white"></path></svg> 