<svg xmlns="http://www.w3.org/2000/svg" xmlns:xlink="http://www.w3.org/1999/xlink" id="Layer_1" x="0px" y="0px" viewBox="0 0 20 20" style="enable-background:new 0 0 20 20;" xml:space="preserve"> <style type="text/css"> .st0{fill:none;stroke:#333333;} .st1{fill:#333333;} </style> <g> <path class="st0" d="M19.5,10c0,5.2-4.3,9.5-9.5,9.5c-5.2,0-9.5-4.3-9.5-9.5S4.8,0.5,10,0.5C15.2,0.5,19.5,4.8,19.5,10z"></path> <path class="st1" d="M9.4,11.4h1.2l0.3-4.5l0-1.7H9.1l0,1.7L9.4,11.4z M10,14.7c0.7,0,1.1-0.5,1.1-1.2c0-0.7-0.5-1.2-1.1-1.2 c-0.6,0-1.1,0.5-1.1,1.2C8.9,14.1,9.4,14.7,10,14.7z"></path> </g> </svg>