<svg xmlns="http://www.w3.org/2000/svg" xmlns:xlink="http://www.w3.org/1999/xlink" id="Layer_1" x="0px" y="0px" viewBox="0 0 48 48" style="enable-background:new 0 0 48 48;" xml:space="preserve"> <style type="text/css"> .st0{fill-rule:evenodd;clip-rule:evenodd;fill:#FFFFFF;} .st1{fill:#FFFFFF;} </style> <path class="st0" d="M24.9,13.6c0-0.5-0.4-0.9-0.9-0.9s-0.9,0.4-0.9,0.9v9.4h-9.4c-0.5,0-0.9,0.4-0.9,0.9s0.4,0.9,0.9,0.9h9.4v9.4 c0,0.5,0.4,0.9,0.9,0.9s0.9-0.4,0.9-0.9v-9.4h9.4c0.5,0,0.9-0.4,0.9-0.9s-0.4-0.9-0.9-0.9h-9.4V13.6z"></path> <path class="st1" d="M24,45.2C12.3,45.2,2.8,35.7,2.8,24H0c0,13.3,10.7,24,24,24V45.2z M45.2,24c0,11.7-9.5,21.2-21.2,21.2V48 c13.3,0,24-10.7,24-24H45.2z M24,2.8c11.7,0,21.2,9.5,21.2,21.2H48C48,10.7,37.3,0,24,0V2.8z M24,0C10.7,0,0,10.7,0,24h2.8 C2.8,12.3,12.3,2.8,24,2.8V0z"></path> </svg>