<svg xmlns="http://www.w3.org/2000/svg" width="32" height="20" viewBox="0 0 32 20" fill="none"><path d="M31.4016 9.99974C31.4016 9.99974 31.4016 14.5847 30.7581 16.7827C30.4039 17.9947 29.36 18.9497 28.0356 19.2737C25.6321 19.8637 15.9994 19.8637 15.9994 19.8637C15.9994 19.8637 6.36886 19.8637 3.96646 19.2737C2.64096 18.9497 1.59816 17.9947 1.24396 16.7827C0.601562 14.5847 0.601563 9.99974 0.601563 9.99974C0.601563 9.99974 0.601562 5.41374 1.24396 3.21674C1.59816 2.00374 2.64206 1.04874 3.96646 0.725742C6.36886 0.135742 15.9994 0.135742 15.9994 0.135742C15.9994 0.135742 25.6321 0.135742 28.0356 0.725742C29.3589 1.04874 30.4028 2.00374 30.7581 3.21674C31.4016 5.41374 31.4016 9.99974 31.4016 9.99974ZM21.011 9.68774L12.9612 5.52474C12.8402 5.46174 12.6895 5.46174 12.5685 5.52574C12.4464 5.58974 12.3727 5.70974 12.3727 5.83774V14.1627C12.3727 14.2907 12.4464 14.4097 12.5685 14.4737C12.6301 14.5067 12.6983 14.5227 12.7676 14.5227C12.8347 14.5227 12.9029 14.5077 12.9623 14.4757L21.0121 10.3127C21.1342 10.2487 21.2112 10.1287 21.2112 10.0007C21.209 9.86974 21.1331 9.75174 21.011 9.68774Z" fill="#333333"></path></svg>