<svg xmlns="http://www.w3.org/2000/svg" width="80" height="138" viewBox="0 0 80 138" fill="none"><path d="M41.8058 33.504C41.8961 33.7634 41.8346 34.171 41.6212 34.7638C41.5597 35.0067 41.494 35.2167 41.4366 35.369C41.3751 35.5872 41.3258 35.8178 41.2971 36.0689L43.8899 35.3196C44.7187 35.0726 45.3258 34.912 45.6992 34.8544C46.253 34.7638 46.8397 34.7638 47.451 34.8544C48.5915 35.0726 49.1207 35.5049 49.0304 36.1554C48.9402 36.777 48.3084 37.1681 47.131 37.3246L41.0222 38.0121L40.9197 39.1319L40.7884 41.5527L44.3576 40.9022C46.294 40.5564 47.6438 40.3547 48.3822 40.297C49.4612 40.2023 50.4663 40.2641 51.3894 40.4823H51.4797C52.6817 40.8528 53.3217 41.3427 53.3792 41.9685C53.4489 42.5902 52.7925 42.8948 51.4304 42.8948C49.4284 42.8948 47.3853 42.9607 45.3176 43.0801C43.6479 43.146 41.814 43.2653 39.8079 43.4588C40.6694 43.957 41.133 44.4222 41.1946 44.8504C41.252 45.1303 41.1002 45.5626 40.7351 46.1513C40.571 46.4025 40.4725 46.6001 40.4069 46.7565C40.2879 47.0035 40.1853 47.2547 40.132 47.4935L39.9392 48.2922C41.9822 48.074 43.9884 47.8393 45.9658 47.5923C47.0776 47.4399 48.5012 47.2382 50.2284 46.9871C52.6079 46.6413 54.171 46.4807 54.9094 46.4807C55.9597 46.4807 56.9197 46.6989 57.7853 47.1229C59.1063 47.9052 59.7463 48.6215 59.6848 49.2638C59.5905 49.9472 58.8028 50.1818 57.3217 49.9636C54.2653 49.7125 51.2787 49.5766 48.3781 49.5437C45.6951 49.5437 43.0694 49.659 40.5094 49.8648C43.1269 52.2856 46.093 54.3935 49.3997 56.1967C52.493 57.8682 56.0089 59.3709 59.9597 60.7048C60.891 60.923 61.2807 61.1412 61.1781 61.347C61.0428 61.5323 60.5792 61.6476 59.7751 61.6805L57.092 61.9111L52.3699 62.3763C51.652 62.3763 51.053 62.2157 50.5607 61.9111C50.2202 61.6929 49.613 61.1782 48.7556 60.3754L48.571 60.1902L46.0684 57.6829C44.4069 56.0403 43.1679 54.8134 42.3638 54.0065C41.0346 52.7055 39.972 51.701 39.1679 50.9846C38.2735 53.8706 36.3207 56.3943 33.3299 58.5681C30.2735 60.7954 27.0899 61.9111 23.7956 61.9111C22.9258 61.8781 22.5074 61.767 22.5402 61.5899C22.5648 61.3964 22.9505 61.1947 23.693 60.9806C26.532 59.9884 29.1084 58.6216 31.4387 56.8925C34.1217 54.8134 35.9515 52.5532 36.9443 50.1077C35.7956 50.1654 34.5935 50.2683 33.3299 50.4289C32.5915 50.5194 31.5453 50.6635 30.1792 50.8488L29.531 50.9394C29.0346 51.0052 28.5546 51.0999 28.0951 51.2234C27.8161 51.2852 27.4469 51.3758 26.9792 51.5034C26.0192 51.7504 25.3012 51.8739 24.8048 51.8739C24.0581 51.8163 23.1228 51.5034 21.9822 50.9394C21.3012 50.5359 20.973 50.2148 21.0017 49.9678C21.0017 49.7166 21.3463 49.5808 22.0233 49.5478C25.211 49.3955 28.0335 49.2432 30.5074 49.0826C33.0961 48.8973 35.3812 48.7121 37.3587 48.5268C37.4161 48.1563 37.4735 47.7652 37.5433 47.3617C37.572 46.9912 37.5884 46.5918 37.5884 46.1555C37.5884 45.9043 37.5597 45.6408 37.494 45.3691C37.4612 45.2168 37.4161 44.9986 37.3587 44.7145C37.293 44.4675 37.252 44.2822 37.2151 44.1546C37.1904 43.9693 37.1699 43.817 37.1699 43.6935L34.9956 43.9282L32.6817 44.2493C32.3946 44.2493 32.1402 44.2822 31.8858 44.3399C31.734 44.3687 31.5494 44.4263 31.332 44.484C30.8725 44.6363 30.5074 44.7022 30.2243 44.6692C29.7607 44.6034 29.0797 44.3852 28.1853 44.0187C27.6643 43.7676 27.4346 43.5329 27.492 43.3271C27.5494 43.1336 27.9351 43.0101 28.6489 42.9483C30.5607 42.796 32.3658 42.6107 34.0684 42.3843C35.6069 42.232 37.0797 42.0632 38.4663 41.8779V38.2962C37.5146 38.3579 36.7392 38.4032 36.1566 38.432C35.4099 38.465 34.8274 38.4814 34.3925 38.4814C33.8961 38.4485 33.4202 38.3579 32.9607 38.1974C32.5258 38.0492 32.1525 37.8598 31.8407 37.6498C31.5617 37.4316 31.4387 37.2464 31.4715 37.0858C31.5412 36.9335 31.7792 36.8923 32.214 36.9499L38.4663 36.53V35.8384C38.4663 35.1879 38.3802 34.5539 38.1874 33.9322C38.0356 33.467 37.8346 32.9853 37.5884 32.4871C36.3576 32.5489 35.3484 32.5983 34.5689 32.6312C33.6869 32.6889 32.9607 32.7177 32.3946 32.7177C31.9679 32.7177 31.4715 32.6312 30.9176 32.446C30.4294 32.2854 30.0069 32.1166 29.6663 31.9314C29.3299 31.6761 29.1946 31.4785 29.252 31.322C29.3094 31.1697 29.6499 31.075 30.2694 31.0421C34.3515 30.8898 37.8838 30.5769 40.8705 30.1117C42.5771 29.8276 44.3781 29.4406 46.294 28.9424C47.254 28.7037 47.9351 28.5513 48.3412 28.4855C48.8992 28.4196 49.453 28.4855 50.0028 28.679C50.9874 28.9424 51.492 29.3871 51.5371 29.9717C51.5658 30.5604 50.9792 30.9227 49.7689 31.0421C48.694 31.2274 47.4263 31.3962 45.974 31.5567C45.1412 31.6473 43.7956 31.7914 41.9453 31.9684L40.3166 32.1619C41.1905 32.6848 41.6787 33.1335 41.8058 33.504ZM36.1566 27.8844C35.5371 28.2508 34.852 28.0532 34.1176 27.2751C33.8017 26.9334 33.453 26.4805 33.0469 25.8835C32.8294 25.546 32.5258 25.0437 32.1279 24.3932L31.4715 23.3722C31.1966 22.8493 31.1228 22.52 31.2417 22.4006C31.3935 22.1824 31.9679 22.2153 32.9607 22.4871C34.4007 22.9193 35.4263 23.4051 36.013 23.928C36.7597 24.5785 37.0797 25.4471 36.9812 26.5299C36.9812 27.1186 36.7022 27.5674 36.1566 27.8844ZM50.7002 21.9724C50.6346 22.2853 50.171 22.6723 49.3135 23.1375L49.0304 23.3228L48.4725 23.7016C47.1474 24.809 46.1669 25.6077 45.5105 26.0647C44.4848 26.8757 43.6889 27.4645 43.1022 27.835C42.5484 28.1808 42.1463 28.3002 41.8961 28.2055C41.6458 28.1149 41.7238 27.8679 42.1258 27.4645C42.7453 26.7234 43.3689 25.8465 43.9843 24.8584C44.6325 23.7427 45.0797 22.767 45.3258 21.9313C45.3628 21.746 45.371 21.5443 45.371 21.322C45.4038 21.2067 45.4038 21.0296 45.371 20.8156C45.371 20.1651 45.4981 19.7781 45.7443 19.6587C46.1053 19.4652 46.9833 19.5928 48.3412 20.0251L48.8007 20.1651C50.1628 20.8773 50.7863 21.4825 50.7002 21.9724Z" fill="#58595B"></path><path d="M41.8127 80.8736L45.2302 80.359C46.3748 80.112 47.2117 79.9843 47.7409 79.9843C48.2291 80.0214 48.9266 80.1737 49.8209 80.4578C50.5635 80.7048 50.9327 81.0259 50.9327 81.4253C50.9327 81.8534 50.4527 82.1334 49.4968 82.261C48.2004 82.3763 46.9614 82.4998 45.7922 82.5821C44.3686 82.6809 42.9984 82.7674 41.6691 82.8662L41.5707 86.5385L46.2107 86.0733C47.2568 85.9251 48.2866 85.7645 49.3204 85.6122C49.8989 85.5216 50.6702 85.3899 51.6302 85.2417C53.5132 84.9041 54.8055 84.76 55.5235 84.8176C56.4794 84.8876 57.7266 85.254 59.2691 85.9375C60.5614 86.5838 61.062 87.1684 60.7543 87.6995C60.4466 88.1894 59.7122 88.3953 58.5758 88.3047C56.0117 88.1194 53.5132 88.0206 51.0763 88.0206C48.5697 88.0577 44.9922 88.1647 40.3235 88.35H40.0896L37.4558 88.5888C38.8671 89.3298 39.5727 89.9103 39.5358 90.3508C39.5071 90.6308 38.9943 91.0343 38.0055 91.5571C37.5091 91.8041 37.1399 91.9976 36.8979 92.1252C36.4343 92.4011 36.0486 92.6728 35.7409 92.961L39.3512 94.1673C40.065 93.5744 40.7543 92.9775 41.4353 92.3558C42.1122 91.6724 42.6743 91.0795 43.105 90.5896C43.1994 90.4661 43.2568 90.3055 43.2938 90.1203V89.7045C43.2938 89.4822 43.2979 89.3298 43.3348 89.231C43.3676 89.0828 43.4455 88.9758 43.5727 88.914C43.9132 88.7246 44.3317 88.7699 44.865 89.0458C45.2055 89.2681 45.7225 89.7045 46.4404 90.3508C46.9614 90.8737 47.1666 91.2813 47.0394 91.5571C46.9779 91.7547 46.7153 91.9317 46.2558 92.1252C46.0671 92.1788 45.944 92.2241 45.8825 92.2611C45.7225 92.3187 45.6199 92.4011 45.5543 92.4875C44.2661 93.2615 43.0804 93.9985 41.9932 94.6819C40.7871 95.4518 38.8589 96.7404 36.2045 98.5395L45.2794 97.3744L44.6722 96.728C44.0568 96.1352 43.7245 95.7399 43.6589 95.5176C43.5317 95.2088 43.8312 95.0565 44.5368 95.0565C45.7102 95.11 46.7645 95.3159 47.6876 95.6576C49.0579 96.1805 49.8825 96.9544 50.1984 97.9754C50.6496 99.367 50.4814 100.248 49.6855 100.586C48.943 100.931 48.2004 100.734 47.4579 100.026L46.9491 99.4699L45.7922 98.2595C44.9266 98.4118 43.8312 98.6342 42.4979 98.91C41.0784 99.2229 40.2332 99.4328 39.9543 99.5522C41.1932 100.269 41.9317 100.833 42.182 101.228C42.3666 101.504 42.3461 101.903 42.1327 102.393C42.0384 102.603 41.9809 102.796 41.944 102.949C41.8784 103.196 41.8702 103.447 41.903 103.694C41.9604 104.192 41.9932 104.838 41.9932 105.654C42.0261 106.115 42.0261 106.769 41.9932 107.601L42.0384 108.997C42.0712 109.898 41.7635 110.857 41.1153 111.878C40.4917 112.924 39.8148 113.583 39.0763 113.838C38.8835 113.838 38.7153 113.768 38.5635 113.645C38.4363 113.558 38.2271 113.323 37.9194 112.953C37.4558 112.385 37.0496 111.924 36.7091 111.549C36.0938 110.936 35.4168 110.302 34.6702 109.643C34.0876 109.145 33.8702 108.844 34.0261 108.721C34.2107 108.605 34.6948 108.655 35.4661 108.91L36.2045 109.137C36.8486 109.359 37.3163 109.474 37.5953 109.511C37.9932 109.544 38.2804 109.433 38.4732 109.182C38.7153 108.877 38.8671 108.321 38.9368 107.51C38.9943 106.679 38.9861 105.497 38.8835 103.978C38.8589 103.048 38.8096 102.327 38.7563 101.796C38.6496 100.936 38.4732 100.376 38.1943 100.124C37.4804 100.277 36.7871 100.495 36.1102 100.775C35.2404 101.076 34.424 101.458 33.6609 101.895L32.8609 102.401C32.4958 102.71 32.1963 102.846 31.9871 102.817C31.622 102.763 31.1379 102.368 30.5471 101.66C29.8702 100.824 29.5994 100.252 29.7676 99.9392C29.8907 99.6922 30.4445 99.3629 31.4332 98.9635C32.5409 98.4983 33.4681 98.066 34.2107 97.6626C35.5071 96.9544 36.7994 96.0858 38.104 95.0648C37.3245 94.9042 36.463 94.8095 35.5071 94.7807C34.7317 94.756 34.0999 94.756 33.6076 94.7807L32.7748 94.9083C32.2414 95.0977 31.8722 95.1389 31.663 95.0524C31.3553 94.8918 31.1461 94.4472 31.0558 93.702C30.9327 92.961 30.9779 92.4875 31.1994 92.3023C31.4414 92.0553 32.1758 91.8865 33.3779 91.7877C33.9317 91.6353 34.3666 91.2895 34.6702 90.7667C35.0107 90.1532 34.9943 89.4986 34.625 88.8152C32.7748 89.0046 31.0804 89.2228 29.5338 89.4657C28.6312 89.6263 27.5891 89.8033 26.3789 90.0215C24.9594 90.3014 23.983 90.4126 23.462 90.3508C22.8753 90.3179 21.9153 90.0215 20.582 89.4657C19.8722 89.1281 19.5768 88.8523 19.663 88.6299C19.6958 88.4117 20.0814 88.3088 20.8199 88.3088C22.6455 88.243 25.1153 88.0906 28.2373 87.8477C30.1122 87.6789 33.0168 87.4237 36.9389 87.049L38.8835 86.8638V83.0474L35.9707 83.2326H35.7861C34.7645 83.3314 34.0055 83.352 33.5132 83.2861C33.0168 83.2161 32.4138 83.0474 31.704 82.7262C31.1461 82.3557 30.9081 82.0963 30.9655 81.944C31.0271 81.7834 31.4784 81.697 32.3112 81.697L34.7153 81.52L38.8384 81.2441C38.8384 80.3425 38.8261 79.692 38.7973 79.2844C38.7973 78.6998 38.7604 78.2058 38.6989 77.8023L34.8589 78.2634H34.625C33.4845 78.3911 32.6763 78.4158 32.2168 78.3664C31.5112 78.3005 30.7645 78.0535 29.9932 77.6171C29.4107 77.2713 29.144 77.016 29.2138 76.8349C29.263 76.6372 29.702 76.5467 30.4979 76.5467C31.5891 76.5467 32.7748 76.522 34.0712 76.4561C35.6138 76.3985 37.1276 76.3038 38.6086 76.1885V74.5005C38.4609 73.7965 38.2681 73.179 38.0507 72.6479C37.8373 72.1827 37.6076 71.8122 37.3573 71.5405C36.8979 71.0711 36.7296 70.6965 36.8486 70.4206C37.0045 70.116 37.5091 70.0172 38.383 70.1407H38.6086C39.1338 70.3012 39.5727 70.4371 39.905 70.5565C40.4589 70.7418 40.9266 70.9353 41.2999 71.1205C42.0384 71.4252 42.4897 71.7339 42.6373 72.0468C42.7358 72.2321 42.7071 72.5903 42.543 73.1131C42.4527 73.3313 42.3953 73.5001 42.3666 73.6195C42.3009 73.8789 42.264 74.1136 42.264 74.3194L42.2271 74.4676L42.1327 75.7192C42.8712 75.6245 43.6302 75.4969 44.4055 75.3445C45.1112 75.221 45.8209 75.0852 46.5266 74.9205C47.5522 74.6446 48.3235 74.4923 48.8486 74.4635C49.5543 74.3976 50.3132 74.4882 51.1255 74.7352C51.9214 75.011 52.3276 75.3486 52.3276 75.7645C52.3522 76.1926 51.8394 76.4561 50.7973 76.5467L43.4291 77.3001L41.9973 77.4771L41.8127 80.8736ZM30.9655 108.35C30.4445 109.248 29.5789 110.17 28.3727 111.137C27.7204 111.631 27.0886 111.71 26.4773 111.372C25.7307 111.002 25.5625 110.096 25.9604 108.675C26.0261 108.363 26.1614 108.074 26.3789 107.79C26.5348 107.638 26.7932 107.407 27.1666 107.086C27.6589 106.658 28.0486 106.304 28.3276 106.024C28.7871 105.493 29.2138 104.917 29.5789 104.311L29.7676 103.933C30.0466 103.373 30.2599 103.08 30.4117 103.043C30.6496 103.019 30.9327 103.426 31.2486 104.25L31.4332 104.723C31.7738 105.962 31.622 107.169 30.9655 108.35ZM46.9491 103.373C49.1399 103.933 50.6702 104.427 51.5399 104.847C53.0455 105.6 53.862 106.551 53.985 107.741C54.1163 109.075 53.8168 109.89 53.1071 110.207C52.4302 110.545 51.6466 110.277 50.7481 109.371L49.4968 108.074C48.783 107.292 48.2291 106.708 47.8312 106.3C47.183 105.617 46.5881 105.077 46.0671 104.666C45.423 104.081 45.1112 103.673 45.1481 103.426C45.2055 103.138 45.6527 103.06 46.4855 103.188L46.7153 103.323L46.9491 103.373Z" fill="#58595B"></path><path d="M70.6922 127.181C70.7948 127.375 71.0204 127.268 70.9794 126.737L70.5938 126.366L70.6922 127.181Z" fill="#58595B"></path><path d="M71.4043 123.628C71.2279 123.006 70.8997 122.298 70.5469 122.689C70.9079 123.303 70.7561 123.451 71.1951 124.118C71.2361 124.649 71.0761 125.048 70.9325 124.954C71.0269 125.139 70.8505 125.769 71.0925 126.065C71.3797 125.374 71.3961 124.497 71.1582 123.587C71.2361 123.389 71.3428 123.579 71.4043 123.628Z" fill="#58595B"></path><path d="M71.9945 71.9893L71.9453 72.3269C71.9781 72.2322 71.9863 72.1169 71.9945 71.9893Z" fill="#58595B"></path><path d="M72.2031 40.0007C72.2195 40.2436 72.2606 40.3465 72.2893 40.3547C72.2647 40.1324 72.2318 39.9431 72.2031 40.0007Z" fill="#58595B"></path><path d="M72.618 34.5332L72.6016 34.8543C72.6344 34.7349 72.6508 34.6155 72.618 34.5332Z" fill="#58595B"></path><path d="M71.9922 71.9892L72.1112 71.137C71.984 71.0793 72.025 71.5693 71.9922 71.9892Z" fill="#58595B"></path><path d="M70.4922 116.502C70.5086 116.687 70.5496 116.831 70.5866 116.963L70.5537 116.535L70.4922 116.502Z" fill="#58595B"></path><path d="M72.3047 86.0938V86.3531C72.3457 86.4396 72.399 86.5054 72.4647 86.5672L72.3047 86.0938Z" fill="#58595B"></path><path d="M72.3612 96.9174C72.3694 96.6704 72.0494 96.5881 71.9141 96.4893C72.0494 96.6416 72.1151 96.8186 72.1315 97.0286C72.1848 97.0245 72.2628 96.9998 72.3612 96.9174Z" fill="#58595B"></path><path d="M71.8047 114.073L71.8539 114.377L71.8047 114.073Z" fill="#58595B"></path><path d="M72.375 78.3497C72.4242 78.325 72.4694 78.288 72.494 78.2591C72.4529 78.255 72.4119 78.288 72.375 78.3497Z" fill="#58595B"></path><path d="M58.9664 125.654C58.9541 125.679 58.9664 125.699 58.9664 125.716C59.0279 125.687 59.0444 125.662 58.9664 125.654Z" fill="#58595B"></path><path d="M71.4674 127.264L71.291 127.28C71.2746 127.35 71.25 127.4 71.25 127.465L71.4674 127.264Z" fill="#58595B"></path><path d="M73.0391 24.5371V24.5906C73.0801 24.8459 73.0719 24.7018 73.0391 24.5371Z" fill="#58595B"></path><path d="M7.38281 20.4533C7.66589 19.4076 7.75615 22.1413 8.07204 20.5727C7.95307 20.7168 7.57153 19.1524 7.38281 20.4533Z" fill="#58595B"></path><path d="M70.5263 116.23L70.5181 115.786C70.514 115.983 70.514 116.131 70.5263 116.23Z" fill="#58595B"></path><path d="M8.07031 20.5768H8.07852L8.10724 20.4121L8.07031 20.5768Z" fill="#58595B"></path><path d="M64.9062 6.71094C64.9473 6.76034 65.0375 6.80563 65.1442 6.8468C65.1319 6.81386 65.0745 6.77681 64.9062 6.71094Z" fill="#58595B"></path><path d="M72.3828 18.6704L72.432 18.2422C72.4033 18.4151 72.3951 18.5468 72.3828 18.6704Z" fill="#58595B"></path><path d="M56.0216 7.16352C55.796 7.13881 55.718 7.08941 55.4062 7.13881L55.4965 7.17998C55.6032 7.13058 55.7632 7.11411 56.0216 7.16352Z" fill="#58595B"></path><path d="M46.7891 7.17188L46.9573 7.23775L47.2527 7.21304L46.7891 7.17188Z" fill="#58595B"></path><path d="M30.875 125.814C31.0842 125.901 31.2073 126.008 31.3058 126.098C31.1622 125.876 32.516 125.789 30.875 125.814Z" fill="#58595B"></path><path d="M70.6666 116.494C70.5846 116.444 70.5559 116.37 70.5312 116.234L70.5559 116.539C70.5928 116.572 70.642 116.572 70.6666 116.494Z" fill="#58595B"></path><path d="M55.6439 9.72854L54.1875 9.6709C54.5854 9.70383 55.1229 9.72854 55.6439 9.72854Z" fill="#58595B"></path><path d="M10.0312 82.8911L10.0723 83.2205C10.0764 83.0928 10.0682 82.9776 10.0312 82.8911Z" fill="#58595B"></path><path d="M49.825 9.72832C49.5666 9.60893 49.2794 9.54306 48.9963 9.49365C48.943 9.52659 48.8733 9.54306 48.8281 9.59246L49.825 9.72832Z" fill="#58595B"></path><path d="M40.9726 125.333C39.5736 125.324 40.3162 125.757 40.0167 126C38.3469 126.119 39.2536 125.687 38.6793 125.468C37.6372 125.575 36.8413 125.967 36.0618 125.95C36.0044 125.888 35.8526 125.855 36.029 125.773C34.9295 126.107 32.7634 125.781 31.471 126.218C31.3808 126.172 31.3275 126.131 31.3028 126.098C31.5121 126.321 31.549 126.535 31.5039 126.691C30.8721 126.699 30.3387 126.959 30.0967 126.683C30.4823 126.691 30.5193 126.584 30.6998 126.489L30.0434 126.605C29.4485 126.209 30.9336 126.473 30.9336 126.181C29.6577 126.308 28.1644 126.629 27.1798 126.518C26.9746 126.131 29.4813 126.395 28.1644 126.049L29.6864 126.189C28.5295 125.575 30.6095 126.234 29.5428 125.575C27.5449 125.468 27.2987 125.773 25.309 125.662C24.8618 125.884 25.4567 125.983 25.0095 126.201C22.1787 126.592 22.7859 125.226 20.6936 125.74C20.1603 126.008 19.9469 126.502 18.4618 126.238L18.9705 125.794C17.0382 125.748 17.8669 126.424 15.8321 126.131C16.1931 125.962 17.3582 125.987 17.071 125.925C15.75 125.58 16.1398 126.185 15.1223 126.185L14.9172 125.79C13.1367 125.855 10.3428 126.098 9.70284 126.193L9.68643 125.991C9.80541 125.983 9.92849 125.991 10.0475 125.715C9.9449 125.687 9.949 123.706 10.0228 122.237L10.3223 117.799L9.98182 116.728C9.98592 116.481 10.1336 116.284 10.2116 116.543C10.3346 115.452 9.98592 116.481 9.85874 115.958C9.83413 115.345 10.0557 115.143 10.1541 115.534C9.86284 113.62 9.53054 110.075 9.89977 108.062L9.99413 108.453C10.1336 106.872 9.3049 106.679 9.62079 105.221L9.67413 105.497C9.82592 102.08 9.51823 98.3089 10.0269 95.7111C9.54695 95.2129 10.2444 92.3393 9.56746 92.1087C9.89977 90.1655 10.0228 90.7254 10.2526 87.9835C10.2772 87.2466 9.82182 86.8843 9.75208 85.9868L10.1049 85.958L9.73977 84.7394L10.1623 84.0806L10.0721 83.2161C10.0516 83.5619 9.90797 83.9448 9.81361 83.8913C9.64951 82.5697 10.0557 80.6636 10.2403 80.6265L9.93669 77.4935C10.0844 77.5594 10.1295 78.0822 10.2239 78.4939C9.85874 76.8266 10.5972 78.2016 10.2608 76.666C10.1787 76.8595 10.0557 76.5507 9.98182 76.5054C10.1952 75.7438 10.1993 74.0106 10.1049 72.7178L10.3552 72.9649C10.4167 70.6347 10.2362 68.0533 10.2362 65.439C10.1295 66.3818 9.70284 66.1636 9.66182 65.3979L10.0434 65.085C9.80541 64.5951 9.89566 65.8878 9.60438 64.8668C9.64951 63.8952 10.0434 64.2163 10.1541 64.7803L10.0269 63.5905C10.1336 63.5164 10.1993 63.8005 10.3387 63.8705C10.1049 63.3806 10.7203 61.8202 10.3182 61.1204L10.4249 61.0504L10.2772 55.1219C9.949 55.0808 10.0269 54.245 9.76438 53.611C9.86284 52.0507 10.1295 50.3133 10.0926 48.4319C9.93669 47.098 9.81772 48.0367 9.6331 47.4438C9.92849 47.345 9.89977 45.4636 10.1049 46.4475C10.0639 44.1791 10.0516 43.5533 9.81361 40.6879C9.69464 41.0008 9.64131 41.3466 9.53054 41.1696C9.48951 40.6467 9.66182 39.9839 9.80541 40.058L9.82592 40.1939C9.39105 36.9867 10.6916 32.7792 10.0762 30.2226L10.1049 30.3667L9.78079 27.7154C9.84233 26.4926 10.0105 28.4482 10.1869 27.5466C9.70284 24.6853 10.2608 23.0261 9.93669 20.6712C10.8023 18.8474 9.87105 14.1994 10.4331 11.7374L10.228 11.8733C10.0228 11.2393 10.3387 11.1117 10.388 10.6341C10.228 10.7 10.2116 11.3257 10.0885 10.9346L10.0269 9.41547L15.5859 9.62132L22.4741 9.95891C24.4844 10.0165 23.6105 8.90085 26.15 9.38254L25.4362 9.76953C29.5018 9.30843 33.748 9.78188 37.7234 9.399C37.4895 9.48546 37.4731 9.60073 37.0875 9.60073C37.9367 9.87245 40.2054 9.60485 40.2136 9.38254C40.8372 9.40724 40.3572 9.5925 40.7428 9.70366C41.5839 9.86422 42.8557 9.3496 43.2987 9.62132C43.3767 9.67072 43.0731 9.71189 42.909 9.73659C43.4587 9.60485 45.469 9.76953 44.9521 9.45252C46.4372 9.60485 47.8034 9.30843 48.989 9.49369C49.7685 9.13964 51.5449 9.67072 51.791 9.16434C51.6885 9.68719 54.4085 9.5925 55.3562 9.34137C55.0444 9.49369 56.189 9.50193 55.8116 9.72836C56.8864 9.71189 57.871 9.61309 57.6823 9.3496C59.6639 9.97538 61.6782 8.85145 62.7941 9.64602L70.4864 9.06965L70.5028 9.25491C70.4003 9.3249 70.3346 9.30843 70.2854 9.25903C70.0434 9.3496 69.7972 9.33313 69.5716 9.35783C69.3787 9.38254 68.6403 9.43606 68.7798 9.65426L69.4772 9.5925L69.6782 9.5184L70.1992 9.35783C70.2813 9.53486 70.3757 9.75306 70.4249 10.1442C70.4659 10.8441 70.4741 11.5851 70.4413 12.4373C70.3757 13.1454 70.2239 12.0339 70.1295 11.8033C70.3469 14.537 70.0885 17.0936 70.3634 19.5391C70.3141 19.5226 70.269 19.2632 70.2362 19.0162C70.2444 19.4897 70.15 20.1319 70.3798 20.0743L70.31 19.6091C70.6546 18.8474 71.0321 21.507 71.2167 21.6058C70.5439 20.7824 71.0403 24.0101 70.1911 22.7133C70.2403 23.0261 70.3428 23.4214 70.5028 23.3555C70.4618 23.8248 70.3593 23.9689 70.1828 23.4996C70.31 25.2122 70.5685 24.6029 70.5603 26.1633C70.4413 26.155 70.4003 25.8421 70.2731 25.6816C70.4905 26.4679 70.7121 27.2666 70.6177 28.584C70.5521 28.4935 70.4659 28.6458 70.4659 28.2629C70.4987 30.5231 71.0526 32.1123 70.8434 34.5989C70.3469 33.8661 70.6834 35.4429 70.2444 35.5705L70.3798 36.9044L70.5808 36.3733C70.5808 37.5425 70.8926 38.58 70.7572 39.5845L70.5726 38.7076L70.6546 40.902L70.8146 39.6628C71.0403 40.8443 71.3603 39.5351 71.2413 41.0955C71.2003 40.7743 71.2413 42.2606 70.9911 42.8658C71.1182 43.4339 71.27 44.0391 71.1593 44.9078C71.0239 45.1219 70.6875 44.7225 70.5972 44.8666C70.95 45.4389 70.6834 47.6003 71.0772 48.3248C70.9911 48.0819 70.7572 48.0737 70.708 48.1561L70.9951 48.6295C70.9008 49.1688 70.8598 49.247 70.6834 49.1688C70.6259 50.7909 71.229 48.646 70.9951 50.5768C70.9623 50.4286 70.9295 50.4945 70.8844 50.1816C70.7654 52.1207 71.069 53.9363 70.9254 55.7148C70.4946 56.2459 70.8228 54.1627 70.4618 54.7555C70.5357 57.3286 70.9746 60.087 70.8639 62.5819L70.9295 62.1125C71.5285 62.4584 70.6259 63.9652 70.9049 65.225C70.8639 64.9203 70.5685 64.8174 70.6423 64.9038C70.5398 66.6083 70.7859 68.395 70.9869 70.9681L70.8269 70.6552C70.6916 71.6515 70.7449 73.2983 70.6752 74.377C70.8269 74.7063 70.8023 75.3198 71.0362 74.9533C70.1377 78.2963 71.5162 81.3305 70.7736 84.303C70.7736 83.9407 70.6382 83.4507 70.6382 83.7266L70.7818 86.2668C71.0403 86.0609 70.9418 85.9292 71.151 85.3981C71.2946 85.7151 71.4218 86.4438 71.4218 87.0572C71.2454 85.9209 70.9951 87.0737 70.8516 87.5554C70.9336 87.4771 71.0198 87.6459 71.1018 87.6048C70.63 88.9222 71.6393 87.8271 71.3193 89.6303L71.1839 89.5397C71.2495 90.2149 71.4423 90.8283 71.3931 91.5529C71.0895 91.8576 71.2495 90.8366 70.9993 90.7954C71.0157 91.8164 71.5777 92.8086 71.2782 93.7308L71.1018 92.2487C70.7408 93.2491 70.831 93.3644 70.7818 94.1178V94.0437L70.6218 95.7728L70.7162 95.3364C71.5162 96.6086 70.868 97.9424 71.389 99.6633C70.8926 97.9877 71.1018 99.3875 70.7572 99.2558C70.6546 99.6839 70.5398 100.363 70.4454 100.178C70.7326 100.985 70.2362 101.537 70.6464 102.689C70.5275 102.735 70.63 103.55 70.351 103.364C70.4372 104.431 70.5439 103.117 70.6875 103.204C71.0649 104.834 70.2239 107.037 70.7449 109.4C70.9623 111.413 71.3439 111.792 71.5285 113.665C71.3521 114.307 71.1264 113.15 71.1264 113.15C70.9582 114.171 70.991 114.941 71.11 115.901C71.0075 115.715 70.9336 115.909 70.8064 116.205C70.831 116.979 71.2085 116.72 71.0485 117.741C70.9295 117.572 70.7285 117.342 70.6095 116.971L70.9911 119.734C70.7982 119.981 70.7039 119.157 70.5726 118.828C70.6587 119.886 70.749 121.582 71.0608 121.899L71.1634 121.216C71.1798 121.615 70.9049 121.421 70.8516 121.129C70.6013 120.228 70.9459 119.824 71.069 119.762L71.1428 120.438C71.7992 119.746 71.0321 117.741 71.069 116.391L71.549 116.959L71.1469 115.575C71.2659 115.271 71.5408 115.077 71.6105 115.74C71.8444 114.764 71.4423 114.88 71.7049 114.056C71.7459 113.957 71.7705 113.994 71.791 114.073L71.6475 113.134C71.7418 113.319 71.9757 112.973 71.9182 113.558C72.1808 111.854 71.549 110.816 71.9182 110.178L71.9428 110.318C71.7746 107.959 71.59 110.092 71.1716 108.321L72.0454 107.123L71.6926 106.893C71.709 106.658 71.7336 106.176 71.8772 106.263C71.6351 105.349 71.7254 106.415 71.4916 105.892C71.8116 104.719 71.3398 102.66 71.9018 102.397C71.6393 101.973 71.6926 103.513 71.5162 102.261C72.1152 101.907 71.4136 100.816 71.6844 99.7498C71.988 100.071 71.8362 101.092 72.111 100.017C71.59 99.371 72.2218 97.9425 72.1275 97.0285C71.709 96.9873 71.951 95.0606 71.8075 93.5455C71.951 93.6443 72.0413 90.7048 72.1931 89.2927L72.2669 89.3298C71.8403 89.058 71.9305 87.6048 71.8403 86.5508C72.0823 86.5961 72.1767 86.7814 72.3039 87.3413L72.2957 86.3573C72.1685 86.1185 72.0946 85.8098 72.0372 85.1675L72.349 85.4145C72.3326 84.093 71.9798 82.7509 72.189 81.0423C71.8936 80.9518 71.3726 82.3927 71.1716 80.6059C71.3316 80.5277 71.6023 80.4618 71.6762 80.9435C71.6434 80.783 71.5408 80.3836 71.6023 80.0748L71.8731 80.7912C71.9839 80.0172 71.6393 80.3836 71.6721 79.762C71.8977 79.7702 71.8321 79.3173 72.0167 79.3997C72.0331 79.552 71.9305 79.9308 72.0085 80.1737C72.0495 79.4738 72.1849 78.6216 72.3531 78.354C72.2259 78.4116 72.0495 78.354 72.0249 77.8393C72.0085 76.5054 72.2957 77.3823 72.4105 76.6125C72.2587 76.2955 72.4187 75.4433 72.0741 75.4227C72.0741 75.0357 72.2423 74.9616 72.3326 74.8092C72.1808 74.1258 72.2916 71.6145 71.9305 72.3885L71.9059 72.5614L71.8895 72.4502V72.4585V72.4502C71.5449 70.1982 72.0741 67.7775 71.9387 65.5502L72.0495 65.5584C71.9223 64.2245 71.9675 62.5942 71.7295 61.6432C71.7295 61.248 71.9387 60.7128 72.0659 60.8898C71.9839 59.8688 71.8649 59.7535 72.0413 58.2838C72.2505 59.313 72.2177 57.9297 72.1849 59.3295C72.2875 58.0079 72.4721 57.7115 72.1603 56.287C72.4475 56.7729 72.5213 55.2907 72.4393 54.665L72.2218 55.5872C72.1808 54.8832 72.2054 54.2697 72.2382 53.644L72.6239 53.9816C73.0875 51.2726 71.8321 49.0988 72.6075 47.0404C72.3367 46.324 72.4146 48.506 72.1028 47.8679C72.1603 46.6245 72.7018 45.3277 72.7018 44.9366C72.911 43.2281 72.1398 43.3516 72.2916 41.5648C72.1562 41.7912 71.7869 42.0094 71.6598 40.6714C71.7172 39.4281 72.2382 39.144 72.3408 39.9345C72.349 40.2309 72.308 40.3668 72.2669 40.3585C72.3162 40.762 72.3695 41.2931 72.5172 40.7949L72.4064 40.6303C72.5336 40.0086 72.5254 38.3042 72.751 38.7076C72.6239 37.7649 72.5254 38.3042 72.4639 38.9958C72.6567 37.4026 72.4639 36.5051 72.5993 34.8542C72.5172 35.1218 72.3572 35.3605 72.3572 35.1053C72.5254 32.6845 72.0987 34.0349 72.0454 32.4046C72.2546 31.4783 72.5336 32.7422 72.3654 31.0913C72.5008 30.0867 72.7264 30.8813 72.8372 31.2765C72.5746 29.7738 73.0136 28.477 73.0628 27.6248L73.1654 28.4152C73.108 27.9418 73.108 27.5548 73.108 27.1596L72.8372 27.6124C72.8864 27.1431 72.8864 26.752 72.989 26.7643C72.8126 26.2827 72.5336 27.1266 72.2998 26.1797C72.4352 25.5581 72.1398 24.2983 72.5172 24.0883C72.39 26.0356 72.87 23.8701 72.9275 25.521C72.8864 25.1999 72.8864 24.8129 72.9439 24.3477C72.9849 24.2818 73.0259 24.4177 73.03 24.5371C73.3582 22.6803 72.628 23.6849 72.6362 21.7581C72.8372 22.0051 73.0218 21.3135 72.9808 21.0006C72.9726 21.7746 72.6444 21.3711 72.4844 20.6548C72.6444 19.4156 72.3572 19.3126 72.3736 18.6704L72.308 19.4073C72.0987 19.1603 72.1316 18.5387 72.0577 17.6782C72.2177 17.6 72.1685 18.4604 72.2341 18.1475C71.8813 17.1965 72.6116 15.9903 72.3613 14.6564C72.5131 14.0388 72.7551 14.5905 72.8413 14.0553C72.5828 12.5567 73.1285 12.4373 72.9069 10.8688C72.6444 11.3134 72.6895 11.3998 72.4352 10.2883L72.628 12.8696L72.2259 11.2146C72.2177 11.9968 72.4023 12.8572 72.3531 13.3307C72.1275 12.5402 72.1931 12.6226 71.9675 12.9931C72.3859 11.8651 71.7254 10.9964 72.0003 9.5184L72.6895 9.42371C72.7757 8.50562 72.7839 7.61224 72.7551 6.79297L69.6577 6.98647C68.8577 7.04822 68.23 7.08939 67.3562 7.03175L68.1316 7.15526C67.8116 7.41875 66.6464 7.1882 65.8793 7.29935C65.9449 7.07292 65.4608 6.98647 65.1244 6.85061C65.1654 7.01117 63.3685 6.83414 63.1593 7.28289L62.0803 6.98647C60.1562 6.86296 59.8731 7.63695 58.0146 7.55461C58.5726 7.31582 57.7316 7.14703 58.9705 6.97C58.3552 6.97 57.7931 6.92883 57.7849 7.08939C57.4157 6.93706 56.0618 7.39404 55.4875 7.17996C55.2208 7.27465 55.1428 7.51755 54.4413 7.49285C54.3675 7.45168 54.4495 7.37758 54.4495 7.37758C54.4413 7.49285 53.35 7.53402 53.9613 7.78927C52.0454 7.07292 48.6075 7.83868 46.9418 7.23348L42.7203 7.40228C42.8023 7.32406 42.7244 7.28289 42.9541 7.30759C41.2557 7.08939 41.9039 7.95807 39.9757 7.7234C39.0034 7.35699 41.0136 7.52579 40.3982 7.37758C40.1316 6.63241 38.068 7.49285 36.7675 7.04822L37.0834 7.01117C36.0823 6.7518 34.6505 7.29112 33.0259 7.23348C33.0259 7.23348 33.108 7.17173 33.0382 7.12233C31.9264 7.50932 29.8218 7.62871 28.2587 7.73987C28.7469 7.44345 28.9726 7.57931 28.6772 7.28289C27.9757 7.32406 28.8823 7.76457 27.4834 7.84691C27.0198 7.68635 26.0187 7.54637 25.8875 7.23348L27.2044 7.20878C26.5275 6.8012 25.4936 7.22525 24.8003 7.15526L24.8987 6.97C22.8721 7.03175 22.8434 7.49285 20.669 7.45168L20.8905 7.58754C19.709 8.04041 19.8977 7.34052 18.7121 7.66988L18.351 7.21702C17.5716 7.32406 15.6146 7.65341 14.2075 7.73987C15.0034 7.40228 16.6444 7.23348 17.6618 7.03175C16.8864 7.02764 15.028 7.06469 14.6259 7.29112C14.9295 7.24172 15.3316 7.13056 15.6352 7.20055C14.6834 7.55461 13.428 7.73164 11.8813 7.73164C11.9716 7.44345 11.5736 7.31582 10.95 7.25818C10.2772 7.19643 8.91925 7.20055 7.79925 7.17173C7.75823 8.3533 7.68028 9.43606 7.45054 10.0907C7.76643 12.8325 7.31105 15.5333 7.36438 18.7322C8.04951 17.6 7.37669 19.6749 8.08643 19.4732C8.13156 20.2225 8.11925 20.5024 8.07413 20.5683L7.65566 22.8244C7.45054 23.3637 7.49566 22.1204 7.33977 22.1904C7.29054 23.8248 7.04849 22.8738 6.85156 23.9525C7.10182 23.7343 7.21259 24.5247 7.11823 25.4469L7.44233 24.146C7.81567 26.4185 6.85156 26.1139 7.22079 28.4152L7.00336 27.6907C7.13464 28.864 7.00336 32.0423 7.56541 33.1991C7.48746 33.4009 7.29054 33.6726 7.24131 33.158C7.14695 35.9822 7.84028 39.4322 7.49156 41.6266L7.32746 41.4084C7.36849 41.9394 7.64336 42.3264 7.47515 42.9852C7.3972 42.9522 7.29464 42.7752 7.29054 43.0181C7.34797 43.2898 7.59413 44.4179 7.48746 45.1136L7.29464 44.5208C7.069 47.2709 7.76233 48.7407 7.88131 51.042C7.37669 51.042 7.21259 53.2034 7.13464 54.2821L7.05669 54.2409C7.00336 57.4521 7.48336 59.6877 7.68028 62.6436C7.13054 64.4921 7.45054 68.8849 7.14284 71.845C7.229 71.3922 7.53259 71.915 7.58182 72.4461C7.48746 73.1378 7.93464 74.3687 7.47515 74.2493L7.48746 74.0064C7.01977 74.5293 7.14695 75.9579 7.13464 77.0695L7.75002 77.2547C6.85977 80.1654 8.06592 84.8876 7.28233 86.4726C7.43413 87.1848 7.42182 88.0535 7.56951 88.7534L7.24951 88.7081C7.17156 90.6595 7.12643 91.627 7.20438 94.0437L6.97464 93.5455C6.95823 94.9041 7.91002 95.2664 7.93464 96.5139L7.44233 96.905C7.45464 99.264 7.01977 101.668 7.46284 104.011C7.3931 103.966 7.25361 103.908 7.229 103.521C7.22079 104.641 6.9049 107.831 7.56951 107.428C7.13874 107.453 7.52438 109.873 7.7172 111.154L7.40541 110.952C7.80746 112.031 7.92233 112.068 8.0372 113.575C8.00028 113.929 7.78284 113.896 7.86079 113.414C7.68849 114.604 8.16849 114.344 8.00028 115.785L7.79515 115.254C7.75823 116.469 7.8731 116.374 8.11105 117.053C8.23823 117.827 8.0331 119.379 7.75002 119.556C7.91823 119.725 8.15618 120.4 8.07413 121.109C7.95925 121.216 7.90182 120.948 7.86079 120.816C7.64336 122.883 8.23413 123.834 7.91823 125.32C7.81566 125.366 7.75823 125.497 7.72131 125.683C7.73361 123.727 7.75413 122.657 7.77874 122.698C7.48746 122.698 7.43413 124.011 7.01566 122.965L7.43823 124.954C7.56951 125.905 7.65977 127.198 7.59413 128.194L7.5572 128.346C7.59413 128.363 7.62284 128.379 7.64336 128.412L7.46284 128.441L7.45464 128.387L7.45054 128.457C7.88951 128.482 8.33259 128.457 8.74284 128.396C9.37874 128.457 9.7931 128.482 10.4372 128.486C10.7982 128.733 12.0003 128.622 12.7018 128.63C12.6444 128.309 13.5018 128.354 12.7018 128.087C12.8126 128.116 12.5828 128.132 12.1439 128.14C12.0413 128.149 11.9346 128.149 11.8649 128.177L11.9059 128.14L10.0721 128.165C10.9787 128.009 11.27 127.865 12.0659 128.042C12.4064 127.84 12.7757 127.617 12.9808 127.527C13.871 127.967 15.5859 128.227 15.8321 128.494C17.8259 128.309 20.5336 128.379 21.7931 127.77C22.3675 127.683 22.4372 127.939 22.6546 128.037C22.3264 128.099 21.9367 128.087 21.7562 128.182C22.8967 128.021 25.1203 128.112 25.391 127.692C26.8187 127.877 24.5952 128.087 26.5562 128.013L26.2895 128.136C30.1541 128.811 32.5705 127.053 36.8577 127.934C36.5664 127.865 36.4105 127.844 36.349 127.782C41.231 128.161 46.4167 127.42 51.2372 128.029C52.6075 128.144 52.7593 127.877 53.5921 127.675L53.8875 128.021L55.3234 127.613C57.3418 127.321 58.8269 128.474 61.391 127.918L61.0628 127.671C61.99 127.72 63.9839 127.543 63.8362 127.803C63.9305 127.77 64.1316 127.564 64.4967 127.687L64.5254 127.865L66.7941 127.56C68.55 127.687 66.5111 128.289 69.0793 128.313C70.0311 128.251 71.7869 127.79 71.4341 127.667C71.0403 127.659 70.4577 127.556 70.4249 127.37L71.2905 127.28C71.4505 126.741 72.1152 126.189 69.9859 125.814L68.4967 126.144L68.0167 125.888L69.268 125.872C68.5541 125.617 68.1069 125.835 67.6023 125.987C67.4834 125.851 67.2741 125.748 66.9787 125.703L65.51 126.218C65.3418 126.004 66.1664 125.794 65.19 125.683C64.509 125.913 65.8464 126.156 64.7141 126.308C64.0044 126.061 64.2136 125.872 63.3726 126.07C63.2618 125.925 63.4382 125.847 63.7746 125.777C63.0239 125.946 61.8013 125.851 61.4198 126.139C60.6813 125.843 58.9049 126.226 58.9746 125.711C58.7408 125.835 57.6618 126.107 56.9726 126.135C58.2321 125.53 54.4167 126.09 54.7449 125.444C53.8218 125.991 51.4095 125.687 49.7685 125.991C49.8587 125.95 50.0393 125.868 50.1828 125.901C49.2639 125.847 48.9972 125.678 48.4064 125.571C48.2875 126.032 46.8516 126.131 46.0762 126.415C44.948 125.979 46.7654 125.884 46.4126 125.473C46.4618 125.835 44.4434 125.835 44.829 126.131C43.9675 125.872 44.0864 126.004 43.6434 125.625C43.4957 126.197 42.8311 125.724 42.1172 126.07C40.8659 125.794 41.7972 125.547 40.4228 125.715C39.7541 125.547 40.9726 125.333 40.9726 125.333ZM9.57566 126.078H9.58797L9.60028 126.3L9.74387 126.292L9.60028 126.308L9.57566 126.078ZM9.56746 124.011L9.56336 125.201C9.44849 125.263 9.33772 125.217 9.33772 124.913C9.41566 125.061 9.4772 124.423 9.56746 124.011ZM11.3644 128.564C10.9336 128.618 10.7777 128.548 10.7203 128.478L11.4834 128.457L11.5326 128.412C11.4875 128.474 11.4505 128.523 11.3644 128.564Z" fill="#58595B"></path><path d="M12.1483 128.145L12.3206 128.116L12.0663 128.046L11.9062 128.145H12.1483Z" fill="#58595B"></path><path d="M71.9391 72.3843L71.9473 72.3267C71.9391 72.3761 71.9309 72.4172 71.9062 72.4502L71.9391 72.3843Z" fill="#58595B"></path><path d="M10.1914 85.9624H10.1094L10.1832 86.2094L10.1914 85.9624Z" fill="#58595B"></path><path d="M70.844 87.5557C70.8029 87.5886 70.7783 87.6421 70.7578 87.7697C70.7783 87.7492 70.8029 87.6627 70.844 87.5557Z" fill="#58595B"></path><path d="M70.7592 94.1177L70.6484 95.0481L70.7592 94.1177Z" fill="#58595B"></path><path d="M70.6016 99.1489C70.6672 99.2271 70.7041 99.2354 70.737 99.2477L70.7452 99.2395L70.6016 99.1489Z" fill="#58595B"></path><path d="M70.2245 19.0162L70.2081 18.8227C70.1465 18.3616 70.1712 18.6704 70.2245 19.0162Z" fill="#58595B"></path><path d="M70.9853 42.8659L70.8253 42.1001C70.8007 42.52 70.7925 42.8494 70.9853 42.8659Z" fill="#58595B"></path><path d="M70.8296 40.9927C70.7639 41.4126 70.7886 41.7708 70.8296 42.1043C70.8542 41.7502 70.8911 41.3385 70.8296 40.9927Z" fill="#58595B"></path><path d="M70.4539 120.998L70.4375 121.253C70.4621 121.245 70.4703 121.253 70.4949 121.269L70.4539 120.998Z" fill="#58595B"></path><path d="M70.5 121.273L70.5328 121.541C70.5287 121.418 70.5287 121.31 70.5 121.273Z" fill="#58595B"></path><path d="M70.6187 122.117L70.5326 121.541C70.5285 121.739 70.5285 121.977 70.6187 122.117Z" fill="#58595B"></path><path d="M70.603 114.324L70.4922 114.246C70.5209 114.291 70.5537 114.324 70.603 114.324Z" fill="#58595B"></path><path d="M70.558 112.307C70.5416 112.788 70.316 113.513 70.3898 114.188L70.4842 114.258C70.3118 113.933 70.759 112.76 70.558 112.307Z" fill="#58595B"></path><path d="M72.0319 103.838L71.9375 105.542C72.0565 105.238 72.2247 104.851 72.2575 105.629C72.6308 103.484 71.9744 106.065 72.0319 103.838Z" fill="#58595B"></path><path d="M72.2031 98.5725C72.2688 99.4864 72.3795 98.5642 72.4616 98.6054C72.3385 98.0331 72.3139 97.889 72.2031 98.5725Z" fill="#58595B"></path><path d="M72.2031 60.499L72.4985 60.5855C72.4575 59.8897 72.3795 60.5855 72.2031 60.499Z" fill="#58595B"></path><path d="M70.6846 53.2119L70.5 53.9036L70.7708 54.2247L70.6846 53.2119Z" fill="#58595B"></path><path d="M72.7803 48.918L72.8213 49.2268L72.7188 48.0493L72.7803 48.918Z" fill="#58595B"></path><path d="M48.4297 6.87964L48.6348 7.24193C49.1107 7.18017 49.2051 6.7726 48.4297 6.87964Z" fill="#58595B"></path><path d="M20.9176 7.25005C20.6222 7.06479 19.8468 6.95363 19.375 7.13066C19.9904 7.15536 20.6058 7.29122 20.9176 7.25005Z" fill="#58595B"></path><path d="M7.29124 78.6383L7.16406 78.0825L7.26252 79.1282L7.29124 78.6383Z" fill="#58595B"></path></svg>