<svg xmlns="http://www.w3.org/2000/svg" width="60" height="172" viewBox="0 0 60 172" fill="none"><path d="M42.3421 37.3965C43.1231 37.548 43.9611 37.6778 44.872 37.79C45.7789 37.8982 46.3651 38.1578 46.6228 38.565C46.9218 38.9723 46.7448 39.3067 46.0936 39.5664C45.4464 39.826 44.7677 40.0109 44.0693 40.1211C43.9179 40.1605 43.1861 40.1014 41.872 39.9559C40.5579 39.8064 39.771 39.7336 39.5172 39.7336C37.5893 39.6608 36.5664 39.6608 36.4562 39.7336C36.3421 39.8064 35.1933 39.826 33.0077 39.7867C32.8621 39.7867 31.9985 39.7611 30.4248 39.7041C28.851 39.649 27.9323 39.6214 27.6726 39.6214C27.5625 39.6214 26.8956 39.6765 25.6739 39.7867C24.4523 39.8988 23.75 39.9559 23.5631 39.9559C23.4136 39.9559 22.7566 39.9126 21.592 39.8162C20.4195 39.7237 19.672 39.7336 19.3395 39.8457C19.19 39.8811 18.828 39.8634 18.2556 39.7867C17.6811 39.7139 17.3192 39.6765 17.1756 39.6765C17.0221 39.6411 16.6897 39.6864 16.1723 39.8162C15.6529 39.9441 15.3205 40.0109 15.1749 40.0109C14.7303 40.0109 14.2995 39.9755 13.8903 39.8988C13.4851 39.826 13.1349 39.8811 12.8379 40.068C12.3559 40.1408 11.6438 40.1014 10.6995 39.9559C9.75328 39.8064 9.13164 39.5664 8.83852 39.2339C8.57885 38.9349 8.67328 38.7696 9.11393 38.7323C9.56049 38.6968 10.1113 38.3801 10.7802 37.79C12.1926 37.6405 12.8575 37.5382 12.7828 37.4811C12.71 37.428 13.3749 37.3237 14.7834 37.1782C15.8929 37.1014 16.6444 37.1467 17.0339 37.3159C17.4234 37.4811 18.228 37.548 19.4497 37.5086C20.2641 37.4359 21.0431 37.428 21.7848 37.4811C22.5264 37.5382 23.2661 37.5283 24.0077 37.4555C24.9303 37.3808 25.609 37.3336 26.0339 37.3159C26.4628 37.2982 26.7461 37.2687 26.8956 37.2313C27.4129 37.0837 27.7375 36.9913 27.8713 36.9539C28.0011 36.9165 28.0995 36.7336 28.1723 36.4011C28.2097 36.2516 28.1723 36.0746 28.0661 35.8719C27.95 35.6693 27.8792 35.4726 27.8418 35.2877C27.8044 35.0654 27.7769 34.7585 27.7592 34.369C27.7375 33.9814 27.7297 33.7709 27.7297 33.7316C27.6215 33.5467 27.5762 33.287 27.59 32.9546C27.6097 32.6221 27.6215 32.3978 27.6215 32.2877C27.6549 31.0995 27.893 30.5467 28.3395 30.6195C28.7841 30.6942 29.0654 30.767 29.1756 30.8418C29.807 31.2116 30.0018 31.3513 29.7598 31.2568C29.5159 31.1644 29.6359 31.4142 30.1198 32.0064C30.4503 32.0457 30.6195 32.325 30.6195 32.8405C30.6195 32.99 30.5743 33.1572 30.4818 33.3421C30.3893 33.5309 30.3402 33.8437 30.3402 34.2844C30.3402 34.4359 30.352 34.6306 30.3716 34.8687C30.3893 35.1106 30.4326 35.3801 30.5054 35.6752C30.7316 36.6411 30.8713 37.0837 30.9244 37.009C30.9815 36.9362 31.3631 36.9913 32.0634 37.1782C32.2503 37.2509 32.8051 37.2864 33.7356 37.2864H35.6752C35.8248 37.2864 36.112 37.2254 36.5408 37.0936C36.9657 36.9637 37.3611 36.8811 37.729 36.8437C38.028 36.8064 38.39 36.8064 38.8149 36.8437C39.2398 36.8811 39.527 36.8988 39.6766 36.8988C39.7848 36.8988 40.1389 36.9637 40.733 37.0936C41.3231 37.2254 41.8641 37.3237 42.3421 37.3965ZM27.4543 25.786C27.527 26.0437 27.4838 26.3132 27.3166 26.5906C27.1493 26.87 27.3067 27.2123 27.7887 27.6175C27.2674 28.1742 26.6949 28.5716 26.0674 28.8136C25.4359 29.0536 24.9539 29.1559 24.6215 29.1185C24.5467 29.1185 24.3893 29.0732 24.1454 28.9788C23.9093 28.8883 23.752 28.8214 23.6752 28.786C23.4884 28.6759 23.3113 28.5913 23.148 28.5362C22.9808 28.4811 22.8608 28.4359 22.7861 28.3965C22.672 28.3965 22.5284 28.4457 22.3415 28.5362C22.1585 28.6287 21.9874 28.6759 21.8418 28.6759C21.6923 28.6759 21.2143 28.5716 20.3979 28.369C19.5834 28.1644 19.0267 28.0267 18.7316 27.9539C18.5802 27.6568 18.5625 27.4424 18.6746 27.3106C18.7867 27.1847 18.8438 27.0273 18.8438 26.8424C18.95 26.6929 19.2864 26.5808 19.847 26.508C20.3979 26.4313 20.75 26.3978 20.8975 26.3978C21.0805 26.4313 21.2693 26.4805 21.4523 26.5355C21.6392 26.5906 21.8202 26.6201 22.007 26.6201C22.4162 26.6575 22.9316 26.5808 23.5651 26.3978C24.1926 26.2109 24.5841 26.0811 24.7297 26.0083C25.0267 25.8234 25.192 25.4064 25.2313 24.7572C25.2707 24.11 25.2825 23.7106 25.2825 23.5631C25.3238 22.6011 25.3139 21.9421 25.2589 21.59C25.2018 21.2378 25.0995 20.9703 24.9539 20.7834C24.9166 20.6713 24.8418 20.5887 24.7297 20.5336C24.6215 20.4765 24.472 20.4313 24.2851 20.3959C24.1415 20.3585 23.9625 20.3211 23.7579 20.2837C23.5533 20.2464 23.3034 20.2109 23.0084 20.1736C22.9316 20.1736 22.6464 20.2385 22.1467 20.3664C21.649 20.4982 21.3067 20.5985 21.1198 20.6713C21.0451 20.7087 20.9211 20.7382 20.7579 20.7559C20.5926 20.7755 20.4746 20.7637 20.3979 20.7264C20.2503 20.6536 20.0477 20.6457 19.788 20.7008C19.5264 20.7559 19.2864 20.7834 19.0621 20.7834C18.9166 20.7834 18.7867 20.8109 18.6746 20.866C18.5625 20.9231 18.4523 21.045 18.3421 21.228C18.1907 21.4877 18.0903 21.7296 18.0333 21.9519C17.9802 22.1723 17.9369 22.4319 17.8975 22.727C17.8975 22.8037 17.9133 22.9041 17.9526 23.0359C17.99 23.1637 18.0293 23.3211 18.0628 23.508C18.1002 23.6555 18.1356 23.805 18.1729 23.9526C18.2084 24.1001 18.23 24.2673 18.23 24.4523C18.2654 24.6746 18.287 25.0149 18.287 25.4791C18.287 25.9434 18.2654 26.266 18.23 26.4509C18.1907 26.7126 18.0707 26.9801 17.868 27.2575C17.6634 27.5349 17.3939 27.8221 17.0634 28.1191C16.8057 27.6726 16.5933 27.2575 16.4241 26.87C16.2569 26.4805 16.1369 26.0988 16.0621 25.729C16.0248 25.3965 15.9992 25.0641 15.9815 24.7296C15.9579 24.3972 15.9343 24.0805 15.8949 23.7834C15.8575 23.4883 15.8379 23.2464 15.8379 23.0614C15.8379 22.8785 15.8221 22.6011 15.7828 22.2273C15.7828 21.8595 15.7651 21.4877 15.7297 21.1178C15.6903 20.748 15.6392 20.3959 15.5625 20.0614C15.4897 19.6916 15.3461 18.7552 15.1434 17.2562C14.9408 15.7532 14.8562 14.7657 14.8916 14.2818C14.929 14.026 15.0785 13.8372 15.3382 13.725C15.5939 13.6149 15.8025 13.5598 15.95 13.5598C16.0602 13.5598 16.2549 13.7172 16.5343 14.0319C16.8136 14.3487 17.0221 14.6536 17.1756 14.9467C17.2464 15.4306 17.3054 15.8201 17.3389 16.1172C17.3762 16.4123 17.392 16.6523 17.392 16.8372C17.4333 17.026 17.4608 17.2188 17.4785 17.4214C17.4962 17.626 17.5218 17.9329 17.5611 18.3401C17.5611 18.4523 17.6615 18.5998 17.8661 18.7828C18.0687 18.9696 18.228 19.0601 18.3402 19.0601C19.0051 19.0995 19.6661 18.9146 20.3113 18.5054C20.9585 18.1001 21.5251 17.9132 22.0051 17.9506C22.1192 17.9506 22.3297 17.986 22.6444 18.0627C22.9611 18.1355 23.1913 18.1709 23.3408 18.1709C23.6359 18.2103 24.0195 18.1001 24.4798 17.8385C24.9421 17.5788 25.19 17.1716 25.2293 16.6149V15.4227C25.2293 14.7736 25.1546 14.2464 25.009 13.8372C24.8969 13.5401 24.8005 13.2824 24.7277 13.0601C24.6529 12.8378 24.47 12.6175 24.1729 12.3952C23.8759 12.2083 23.6064 11.986 23.3684 11.7283C23.1244 11.4687 23.0261 11.1539 23.0615 10.7821C23.1362 10.4123 23.4313 10.1526 23.9507 10.005C24.47 9.85554 24.7474 9.78275 24.7828 9.78275C24.9303 9.78275 25.1172 9.8634 25.3395 10.0306C25.5598 10.1978 25.7487 10.3198 25.8962 10.3926C25.971 10.428 26.0536 10.4555 26.1441 10.4752C26.2366 10.4949 26.3034 10.5224 26.3389 10.5598C26.7854 10.7054 27.0982 10.9473 27.2851 11.2818C27.47 11.6162 27.5625 12.0411 27.5625 12.5605L27.4523 20.0614C27.4523 20.3211 27.4248 20.9703 27.3716 22.005C27.3146 23.0437 27.2851 23.6555 27.2851 23.8424C27.2851 23.99 27.3048 24.3224 27.3402 24.8418C27.3815 25.3591 27.4149 25.6739 27.4543 25.786ZM39.232 9.7257C39.7513 9.94799 40.2156 10.2549 40.6208 10.6444C41.0261 11.0319 41.2346 11.5434 41.2346 12.169L41.1815 19.5618C41.1815 19.8195 41.1126 20.5257 40.9848 21.6706C40.853 22.8214 40.788 23.4883 40.788 23.6732C40.7526 23.8228 40.7349 24.2024 40.7349 24.8123C40.7349 25.4241 40.7546 25.786 40.788 25.8982C40.8628 26.1559 40.7723 26.39 40.5107 26.5906C40.2529 26.7972 40.3061 27.1552 40.6759 27.6726C40.1566 28.2293 39.6116 28.6109 39.0352 28.8136C38.4628 29.0182 37.9907 29.1027 37.6208 29.0634C37.5854 29.0634 37.4457 29.0083 37.2057 28.8982C36.9638 28.786 36.8064 28.7113 36.7297 28.6759C36.5428 28.6011 36.3677 28.5264 36.2025 28.4536C36.0372 28.3788 35.9152 28.3414 35.8405 28.3414C35.7284 28.3414 35.6261 28.3788 35.5356 28.4536C35.4392 28.5264 35.3192 28.5618 35.1716 28.5618C35.0261 28.5264 34.6267 28.4378 33.9795 28.2883C33.3323 28.1368 32.8602 28.007 32.5592 27.8968C32.5238 27.7473 32.4785 27.645 32.4215 27.5919C32.3723 27.5349 32.3585 27.4542 32.3939 27.3401C32.4667 27.23 32.5592 27.1198 32.6752 27.0077C32.7874 26.8975 32.8602 26.805 32.8936 26.7323C33.0057 26.5808 33.2398 26.4628 33.59 26.3683C33.9421 26.2759 34.188 26.2483 34.3415 26.2857C34.5264 26.2857 34.7113 26.3211 34.8962 26.3978C35.0831 26.4726 35.2641 26.508 35.449 26.508C35.8562 26.5434 36.3185 26.5277 36.8398 26.4509C37.3572 26.3782 37.6916 26.3054 37.8411 26.2306C38.1716 26.0437 38.3861 25.5913 38.4785 24.8673C38.571 24.1454 38.6359 23.6929 38.6713 23.508C38.7461 22.5441 38.7362 21.8201 38.6457 21.3401C38.5513 20.8582 38.451 20.5257 38.3408 20.3388C38.2661 20.2267 38.1795 20.146 38.089 20.089C37.9966 20.0339 37.8569 19.9887 37.672 19.9493C37.5264 19.9139 37.3493 19.8667 37.1448 19.8116C36.9402 19.7585 36.6943 19.7113 36.3952 19.6739C36.3185 19.6739 36.0805 19.729 35.6693 19.8391C35.2621 19.9493 34.969 20.0418 34.7841 20.1185C34.7093 20.1559 34.6051 20.1736 34.4772 20.1736C34.3493 20.1736 34.247 20.1559 34.1723 20.1185C34.0228 20.0418 33.9264 20.0064 33.8654 20.0064C33.8103 20.0064 33.6884 20.0418 33.5054 20.1185C33.3579 20.2267 33.1887 20.2641 33.0038 20.2267C32.8188 20.1913 32.6339 20.1736 32.447 20.1736C32.3015 20.1736 32.1618 20.1991 32.0359 20.2562C31.9002 20.3113 31.7841 20.4313 31.672 20.6182C31.5244 20.8759 31.4202 21.1827 31.3651 21.5329C31.312 21.887 31.2411 22.2116 31.1723 22.5087C31.1723 22.5814 31.1802 22.6818 31.1979 22.8116C31.2175 22.9434 31.2411 23.1008 31.2825 23.2857C31.3592 23.4332 31.4005 23.5808 31.4202 23.7283C31.4398 23.8759 31.4497 24.045 31.4497 24.23C31.487 24.4523 31.487 24.7946 31.4497 25.2568C31.4123 25.7211 31.3749 26.0437 31.3375 26.2306C31.3021 26.4883 31.1723 26.7578 30.948 27.0352C30.7277 27.3106 30.4464 27.5821 30.1159 27.8418C29.8916 27.3952 29.7067 26.9801 29.5611 26.5906C29.4136 26.2011 29.3034 25.8234 29.2267 25.4516C29.1874 25.0837 29.1716 24.7395 29.1716 24.4227C29.1716 24.11 29.15 23.805 29.1146 23.508C29.0792 23.209 29.0693 22.8962 29.0851 22.5618C29.1048 22.2273 29.1146 21.8752 29.1146 21.5054C29.1146 21.1375 29.1048 20.7637 29.0851 20.3959C29.0693 20.0241 29.0241 19.6916 28.9474 19.3965C28.912 18.9854 28.8195 17.986 28.6739 16.3946C28.5225 14.8011 28.487 13.7644 28.5618 13.2824C28.5972 13.0247 28.7133 12.8378 28.9218 12.7257C29.1225 12.6175 29.3034 12.5801 29.449 12.6175C29.5966 12.6175 29.8208 12.7729 30.1159 13.0877C30.411 13.4024 30.651 13.7054 30.8359 14.0064C30.948 15.0411 30.9933 15.7001 30.9775 15.9775C30.9559 16.2549 30.9874 16.7644 31.0602 17.506C31.0602 17.6182 31.1802 17.7736 31.4202 17.9782C31.6641 18.1827 31.8195 18.2831 31.8962 18.2831C32.5572 18.3205 33.2575 18.1709 33.9775 17.8385C34.6975 17.506 35.3015 17.3585 35.7834 17.3919C35.8975 17.4313 36.0628 17.4864 36.2831 17.5591C36.5034 17.6359 36.6726 17.6713 36.7848 17.6713C37.1172 17.7106 37.5146 17.6083 37.9749 17.3664C38.4431 17.1264 38.689 16.729 38.7264 16.1703C38.7677 16.0227 38.7893 15.6273 38.811 14.9782C38.8326 14.329 38.7677 13.8018 38.6162 13.3926C38.4667 12.8772 38.3448 12.5231 38.2582 12.3382C38.1618 12.1493 37.8923 11.8936 37.4516 11.5611C37.188 11.3742 37.0248 11.1362 36.952 10.8352C36.8713 10.5401 36.8556 10.2254 36.8949 9.89488C36.9677 9.4857 37.2175 9.21619 37.6444 9.08636C38.0693 8.95652 38.3015 8.8916 38.3408 8.8916C38.4136 8.93095 38.5336 9.04898 38.7028 9.25357C38.872 9.45619 39.0451 9.61357 39.232 9.7257Z" fill="#58595B"></path><path d="M47.6731 87.8284C48.0803 87.9405 48.6744 88.6074 49.4514 89.831C49.4514 90.2009 49.2213 90.5254 48.757 90.8028C48.2927 91.0802 47.8954 91.2218 47.5649 91.2218C46.7465 91.2218 45.7314 91.0251 44.5059 90.6376C43.2862 90.25 42.0193 89.9609 40.7288 89.7759C39.2455 89.5536 37.355 89.4336 35.0593 89.414C32.7596 89.3943 31.5223 89.3825 31.3373 89.3825C30.8573 89.3825 30.2357 89.5143 29.4724 89.774C28.7131 90.0317 28.1662 90.1989 27.8357 90.2697C25.9826 90.4979 24.0134 90.671 21.9183 90.8009C19.8252 90.9307 17.6495 91.149 15.3872 91.4382C15.1295 91.4795 14.797 91.5877 14.3859 91.7727C13.9786 91.9615 13.6836 92.054 13.4986 92.054C13.3137 92.054 12.5898 91.7963 11.3327 91.2749C10.0737 90.7576 9.0193 90.3327 8.1616 90.0002C8.12619 89.9254 8.1616 89.8035 8.27569 89.6343C8.38782 89.469 8.51766 89.351 8.66717 89.2743C8.92291 89.2369 9.17274 89.2015 9.41274 89.1641C9.65471 89.1248 9.86717 89.109 10.0541 89.109C10.2409 89.109 10.4062 89.1523 10.5518 89.2448C10.7013 89.3412 10.8488 89.3825 11.0003 89.3825C11.1852 89.3825 11.5727 89.349 12.1688 89.2723C12.759 89.1995 13.239 89.1445 13.6127 89.1071C14.018 89.0697 14.4803 89.0697 14.9996 89.1071C15.517 89.1445 16.0186 89.1445 16.4986 89.1071C17.3524 89.0697 18.2691 89.0146 19.2468 88.9399C20.2304 88.8651 21.3144 88.81 22.5006 88.7727C23.0927 88.7353 23.6868 88.6507 24.279 88.5228C24.8711 88.391 25.4298 88.3084 25.9472 88.271C26.1714 88.271 26.4095 88.2631 26.6691 88.2435C26.9288 88.2238 27.3183 88.1412 27.8357 87.9936C28.3196 87.8441 28.6973 87.5668 28.9747 87.1595C29.2521 86.7523 29.3918 86.4769 29.3918 86.3274C29.3918 86.1759 29.3544 85.9556 29.2816 85.6605C29.2068 85.3615 29.1321 85.0468 29.0593 84.7123C29.0219 84.4172 28.957 84.2422 28.8645 84.1871C28.7701 84.1281 28.6895 83.9176 28.6167 83.5458C28.4652 83.3982 28.3334 83.1484 28.2272 82.7982C28.115 82.4461 28.0619 82.1963 28.0619 82.0468C28.0619 81.6395 28.3255 81.4743 28.8645 81.5471C29.3977 81.6238 29.8895 81.8087 30.336 82.1018C30.7786 82.2494 31.0501 82.3615 31.1406 82.4382C31.237 82.511 31.3727 82.6763 31.5577 82.934C31.9295 83.4179 32.0573 83.7877 31.9472 84.0454C31.839 84.3071 31.8016 84.7713 31.839 85.4343C31.8744 85.6959 31.9 85.9261 31.9196 86.1307C31.9373 86.3333 31.9649 86.5694 32.0023 86.8251C32.075 87.1969 32.5472 87.4369 33.4167 87.5491C34.2882 87.6592 34.9118 87.7143 35.2836 87.7143C35.4645 87.7143 36.4088 87.612 38.1144 87.4074C39.82 87.2068 40.7662 87.1025 40.9452 87.1025C41.1341 87.1025 41.5786 87.1222 42.2829 87.1595C42.9872 87.1969 43.5045 87.252 43.835 87.3248C44.3918 87.4369 45.0232 87.5136 45.7295 87.5491C46.4357 87.5904 47.0829 87.6828 47.6731 87.8284ZM37.9511 61.7156C38.9504 62.3077 39.6291 63.4291 39.9734 65.0756C40.3314 66.7261 40.5065 68.0323 40.5065 68.9943C40.5065 69.3661 40.3216 69.9681 39.9537 70.8002C39.5819 71.6363 39.2632 72.4035 39.0075 73.1077C38.858 73.5149 38.6829 74.0343 38.4783 74.6618C38.2718 75.2933 37.8744 75.7733 37.2842 76.1077C36.5819 76.5523 35.8501 76.9694 35.0908 77.3569C34.3275 77.7445 33.8042 77.9392 33.5052 77.9392C33.2416 77.9392 32.5039 77.9215 31.2823 77.8881C30.0586 77.8487 29.2836 77.829 28.9491 77.829C28.6914 77.829 28.3688 77.8212 27.9793 77.8035C27.5859 77.7838 27.2809 77.7759 27.0626 77.7759C26.319 77.7759 25.5242 77.6461 24.6665 77.3864C23.8167 77.1287 22.8547 76.5877 21.7806 75.7733C21.4462 75.5156 21.2278 75.0986 21.1137 74.5241C21.0036 73.9497 20.799 73.4756 20.5019 73.1077C20.1695 72.6612 19.8272 72.1045 19.475 71.4395C19.1229 70.7727 18.9459 70.271 18.9459 69.9405C18.9459 68.9746 19.6147 67.5031 20.9465 65.5202C22.2783 63.5412 23.0219 62.4769 23.1695 62.3254C23.3544 62.1425 23.6416 61.9005 24.0311 61.6035C24.4186 61.3084 24.7983 61.1412 25.1682 61.1038C26.319 60.9209 27.7157 60.7517 29.3662 60.6022C31.0127 60.4546 31.9668 60.3818 32.2285 60.3818C32.4901 60.3818 33.3124 60.494 34.6993 60.7143C36.0941 60.9346 37.1721 61.271 37.9511 61.7156ZM36.5603 72.6061C36.8573 72.2717 37.1741 71.6363 37.5065 70.6881C37.8409 69.7458 38.0062 69.1812 38.0062 68.9943C38.2659 66.6592 37.5636 65.0205 35.8973 64.0763C34.2311 63.132 32.4901 62.6599 30.6724 62.6599C30.338 62.6599 29.8206 62.6795 29.1163 62.7169C28.4121 62.7523 27.8573 62.8251 27.4482 62.9372C26.1911 63.309 25.0324 64.1058 23.976 65.3274C22.9177 66.549 22.3944 67.513 22.3944 68.2172C22.3944 68.473 22.4023 69.014 22.42 69.8284C22.4377 70.6448 22.5223 71.1976 22.6678 71.4966C22.8213 71.6815 23.0298 71.9667 23.3072 72.3563C23.5845 72.7438 23.7636 72.9956 23.8363 73.1077C23.9485 73.2533 24.275 73.5149 24.8082 73.8848C25.3472 74.2566 25.7249 74.4966 25.9491 74.6068C26.4645 74.8645 27.2377 75.071 28.2567 75.2166C29.2718 75.3661 29.9131 75.4389 30.1727 75.4389C30.9478 75.4389 31.6836 75.3759 32.3682 75.2461C33.0527 75.1163 33.8416 74.8645 34.7249 74.4966C35.0278 74.349 35.3504 74.0599 35.7006 73.6349C36.0527 73.2081 36.34 72.8658 36.5603 72.6061Z" fill="#58595B"></path><path d="M25.554 119.841C25.853 120.765 26.0753 121.544 26.2268 122.176C26.3704 122.803 26.5199 123.527 26.6675 124.344C26.7068 124.491 26.6871 124.741 26.6144 125.091C26.5376 125.443 26.5022 125.66 26.5022 125.734C26.5022 125.915 26.3449 126.454 26.0281 127.344C25.7134 128.231 25.3337 128.937 24.8911 129.456C24.2242 130.233 23.5022 130.979 22.7232 131.707C21.9442 132.427 21.0924 132.789 20.1678 132.789C20.0537 132.789 19.9258 132.763 19.7803 132.706C19.6268 132.651 19.4616 132.602 19.2786 132.567C19.1271 132.494 18.9599 132.421 18.779 132.344C18.5921 132.273 18.4268 132.216 18.2793 132.179C17.9822 132.102 17.6694 132.055 17.333 132.039C16.9947 132.022 16.6839 131.996 16.3868 131.959C16.017 131.917 15.659 131.874 15.3049 131.817C14.9527 131.762 14.5908 131.66 14.2209 131.512C14.1108 131.254 13.9239 130.977 13.6642 130.678C13.4026 130.383 13.1291 130.088 12.8321 129.791C12.535 129.46 12.2262 129.146 11.9134 128.849C11.5986 128.552 11.3468 128.292 11.1639 128.068C10.979 127.885 10.6622 127.359 10.2216 126.486C9.77502 125.616 9.55469 124.995 9.55469 124.625C9.55469 122.512 10.0603 120.718 11.0812 119.235C12.0983 117.755 13.853 116.9 16.3337 116.675C16.9258 116.603 17.4806 116.577 18.0019 116.595C18.5193 116.614 19.2019 116.603 20.0537 116.567C20.1285 116.567 20.3527 116.577 20.7245 116.595C21.0924 116.614 21.3324 116.603 21.4445 116.567C21.5193 116.528 21.6216 116.502 21.7514 116.483C21.8812 116.465 21.9796 116.457 22.0544 116.457C22.5757 116.457 23.1973 116.788 23.9173 117.456C24.6412 118.123 25.1842 118.623 25.554 118.957C25.6327 119.105 25.6406 119.254 25.5855 119.4C25.5304 119.544 25.5226 119.693 25.554 119.841ZM19.0563 129.956C20.5003 129.956 21.775 129.275 22.8629 127.926C23.9567 126.573 24.5055 125.16 24.5055 123.677C24.5055 123.563 24.476 123.419 24.419 123.228C24.3658 123.043 24.299 122.821 24.2262 122.559C24.1514 122.302 24.0688 122.054 23.9744 121.812C23.8819 121.572 23.7973 121.361 23.7265 121.173C23.579 120.728 23.0026 120.165 22.0012 119.479C21.0019 118.794 20.1855 118.454 19.558 118.454C18.8891 118.454 17.937 118.562 16.6976 118.784C15.4544 119.009 14.5022 119.38 13.8353 119.898C13.5757 120.047 13.3868 120.25 13.2767 120.51C13.1665 120.767 13.0583 121.025 12.9462 121.287C12.9049 121.363 12.8714 121.424 12.834 121.483C12.7967 121.538 12.7612 121.603 12.7219 121.676C12.5744 121.938 12.4367 122.345 12.3068 122.898C12.177 123.454 12.1121 123.824 12.1121 124.009C12.1121 124.233 12.1553 124.688 12.2498 125.371C12.3403 126.057 12.4465 126.677 12.5567 127.232C12.7062 127.346 12.8537 127.483 13.0012 127.649C13.1508 127.814 13.2767 127.953 13.3868 128.064C13.5363 128.178 13.6563 128.272 13.7527 128.347C13.8432 128.42 13.9258 128.455 14.0006 128.455C14.337 128.532 14.7265 128.697 15.1711 128.957C15.6137 129.214 16.0386 129.405 16.4478 129.512C16.556 129.549 16.8353 129.633 17.278 129.761C17.7245 129.895 18.0039 129.96 18.1121 129.96H19.0563V129.956ZM37.4517 153.179C37.7449 153.179 38.1698 153.272 38.7245 153.456C39.2793 153.643 39.5389 153.901 39.5094 154.235C39.4681 154.828 38.9075 155.404 37.8373 155.957C36.7632 156.515 36.0589 156.83 35.7245 156.901C35.394 156.934 35.1206 156.978 34.918 157.011C34.7134 157.053 34.5068 157.072 34.2845 157.072H31.975C30.6589 157.072 29.8878 157.051 29.6694 157.011C28.3691 157.011 27.4583 156.923 26.9153 156.736C26.3822 156.547 25.4812 156.382 24.2242 156.236C23.9626 156.195 23.5829 156.024 23.0852 155.703C22.5855 155.39 22.1842 155.107 21.8891 154.843C21.299 154.324 20.9134 153.667 20.7501 152.872C20.5849 152.075 20.3153 151.139 19.9455 150.063C19.794 149.622 19.5953 148.991 19.3337 148.176C19.0721 147.36 18.7239 146.675 18.2793 146.119C18.1652 145.599 18.3993 145.23 18.9757 145.009C19.5462 144.787 20.0006 144.824 20.335 145.121C20.9645 145.643 21.476 146.131 21.8616 146.589C22.2511 147.055 22.5206 147.584 22.6642 148.178C22.7783 148.621 22.676 149.105 22.3612 149.624C22.0485 150.142 22.1842 150.752 22.7783 151.452C23.036 151.713 23.4078 151.975 23.8898 152.237C24.3698 152.494 24.7947 152.736 25.1665 152.953C25.5344 153.102 25.9357 153.321 26.3626 153.624C26.7875 153.921 27.1475 154.062 27.4465 154.062C27.7062 154.062 27.9403 154.019 28.1409 153.931C28.3455 153.838 28.5776 153.795 28.8353 153.795C29.0596 153.795 29.3016 153.891 29.5593 154.096C29.819 154.3 30.0767 154.399 30.3344 154.399C30.5173 154.399 30.8911 154.312 31.4478 154.147C32.0026 153.982 32.4826 153.864 32.8898 153.793C33.7416 153.639 34.6524 153.5 35.6144 153.372C36.5803 153.242 37.1881 153.179 37.4517 153.179ZM47.5042 122.174C48.1357 122.174 48.7671 122.327 49.3967 122.642C50.0262 122.957 50.339 123.417 50.339 124.003C50.339 124.414 50.1953 124.782 49.8963 125.115C49.5973 125.445 49.3003 125.614 49.0091 125.614C48.5291 125.614 48.2557 125.542 48.2026 125.394C48.1494 125.247 47.634 125.17 46.676 125.17C46.4891 125.17 46.0662 125.19 45.3973 125.229C44.7304 125.266 44.3055 125.284 44.1167 125.284C43.9357 125.284 43.6052 125.264 43.1212 125.229C42.6373 125.188 42.3068 125.17 42.1219 125.17C41.1953 125.17 40.6819 125.986 40.5894 127.617C40.497 129.248 40.4537 130.098 40.4537 130.173C40.4537 130.654 40.5442 131.487 40.7331 132.673C40.918 133.857 41.5455 134.451 42.6235 134.451H43.7586H44.8445C45.0294 134.451 45.4209 134.329 46.0091 134.087C46.6052 133.849 46.9927 133.723 47.1776 133.723C47.5101 133.723 48.0216 133.893 48.7062 134.227C49.3908 134.561 49.733 134.876 49.733 135.169C49.733 135.321 49.6524 135.496 49.4832 135.7C49.318 135.905 49.1409 136.192 48.954 136.562C48.9167 136.713 48.594 136.871 47.9842 137.036C47.3704 137.201 46.7685 137.286 46.1763 137.286C46.0288 137.286 45.657 137.213 45.0668 137.062C44.4747 136.916 43.8058 136.767 43.0662 136.621C42.9167 136.548 42.7711 136.452 42.6216 136.338C42.4681 136.228 42.3226 136.173 42.175 136.173C42.0235 136.173 41.7855 136.338 41.4511 136.676C41.1206 137.007 40.8963 137.321 40.7842 137.618C40.7488 137.801 40.7173 138.118 40.6996 138.561C40.6799 139.007 40.6367 139.416 40.5619 139.782C40.4891 140.374 40.3612 141.081 40.1744 141.895C39.9894 142.71 39.8045 143.394 39.6176 143.951C39.356 144.765 39.0904 145.422 38.8131 145.922C38.5357 146.422 38.154 146.748 37.674 146.896C37.5619 146.563 37.6209 146.099 37.8432 145.507C38.0635 144.913 38.2288 144.378 38.3429 143.898C38.4157 143.526 38.4235 143.136 38.3704 142.729C38.3134 142.322 38.2898 141.931 38.2898 141.557C38.2898 141.415 38.3429 141.266 38.455 141.116C38.5671 140.971 38.6399 140.819 38.6734 140.668V136.446C38.6734 136.259 38.6537 136.131 38.6203 136.058C38.5849 135.984 38.5278 135.911 38.455 135.834C38.455 135.096 38.4235 134.325 38.3704 133.527C38.3134 132.734 38.3055 131.984 38.3429 131.278C38.3822 130.318 38.398 129.334 38.398 128.335C38.398 127.334 38.3803 126.313 38.3429 125.278C38.3035 125.201 38.274 125.101 38.2622 124.973C38.2386 124.841 38.1934 124.741 38.1206 124.666C38.1934 124.184 38.2406 123.667 38.2622 123.11C38.274 122.552 38.3035 122.038 38.3429 121.554C38.3822 121.224 38.3822 120.822 38.3429 120.358C38.3035 119.9 38.2485 119.459 38.1737 119.056C38.1383 118.761 38.0911 118.436 38.0399 118.082C37.9789 117.73 37.916 117.372 37.8432 116.996C37.6937 116.445 37.6937 115.859 37.8432 115.247C37.9888 114.637 37.9888 114.053 37.8432 113.496C37.8039 113.31 37.6563 113.089 37.3967 112.826C37.139 112.568 36.9127 112.326 36.7278 112.11C36.4701 111.846 36.2281 111.559 36.0058 111.244C35.7855 110.933 35.4904 110.607 35.1186 110.276C34.7488 109.938 34.1881 109.564 33.4504 109.135C32.7127 108.708 32.339 108.425 32.339 108.275C32.339 107.717 32.4865 107.382 32.7875 107.272C33.0826 107.162 33.3029 107.107 33.4524 107.107H34.259H35.0635C35.2504 107.107 35.7304 107.254 36.5055 107.552C37.2845 107.849 37.8767 108.163 38.2878 108.494C39.5429 109.383 40.255 110.524 40.4242 111.911C40.5894 113.302 40.619 114.458 40.5088 115.387C40.4694 115.649 40.5088 115.971 40.619 116.357C40.733 116.744 40.7862 117.11 40.7862 117.443C40.7862 117.7 40.733 118.009 40.619 118.359C40.5088 118.71 40.4163 119.056 40.3396 119.384C40.2708 119.941 40.2708 120.513 40.3396 121.11C40.4163 121.702 40.5245 122.294 40.674 122.884C40.7134 123.033 40.8157 123.183 40.9809 123.333C41.1462 123.482 41.3035 123.645 41.4511 123.832C42.2675 123.909 42.9265 123.832 43.4262 123.608C43.9278 123.386 44.5967 123.128 45.4504 122.831C45.6747 122.756 46.015 122.626 46.4773 122.443C46.9416 122.262 47.2878 122.174 47.5042 122.174Z" fill="#58595B"></path></svg>