<svg width="19" height="27" viewBox="0 0 19 27" fill="none" xmlns="http://www.w3.org/2000/svg">
<path d="M15.303 24.9996C15.303 25.5496 14.853 25.9996 14.303 25.9996H2.5C1.95 25.9996 1.5 25.5496 1.5 24.9996V3.84863C1.5 3.29863 1.95 2.84863 2.5 2.84863H14.303C14.853 2.84863 15.303 3.29863 15.303 3.84863V24.9996Z" stroke="#171C8F" stroke-width="1.3" stroke-miterlimit="10" stroke-linecap="round" stroke-linejoin="round"/>
<path d="M11.1702 21.3443C13.7538 21.3443 15.8482 19.2499 15.8482 16.6663C15.8482 14.0827 13.7538 11.9883 11.1702 11.9883C8.5866 11.9883 6.49219 14.0827 6.49219 16.6663C6.49219 19.2499 8.5866 21.3443 11.1702 21.3443Z" stroke="white" stroke-width="3" stroke-miterlimit="10" stroke-linecap="round" stroke-linejoin="round"/>
<path d="M14.7656 19.9023L17.1466 22.5843" stroke="white" stroke-width="3" stroke-miterlimit="10" stroke-linecap="round" stroke-linejoin="round"/>
<path d="M11.1702 21.3443C13.7538 21.3443 15.8482 19.2499 15.8482 16.6663C15.8482 14.0827 13.7538 11.9883 11.1702 11.9883C8.5866 11.9883 6.49219 14.0827 6.49219 16.6663C6.49219 19.2499 8.5866 21.3443 11.1702 21.3443Z" stroke="#171C8F" stroke-width="1.3" stroke-miterlimit="10" stroke-linecap="round" stroke-linejoin="round"/>
<path d="M14.7656 19.9023L17.1466 22.5843" stroke="#171C8F" stroke-width="1.3" stroke-miterlimit="10" stroke-linecap="round" stroke-linejoin="round"/>
<path d="M5.24844 4.7C6.27016 4.7 7.09844 3.87173 7.09844 2.85C7.09844 1.82827 6.27016 1 5.24844 1C4.22671 1 3.39844 1.82827 3.39844 2.85C3.39844 3.87173 4.22671 4.7 5.24844 4.7Z" fill="white" stroke="#171C8F" stroke-width="1.3" stroke-miterlimit="10" stroke-linecap="round" stroke-linejoin="round"/>
</svg>
