<svg width="18" height="25" viewBox="0 0 18 25" fill="none" xmlns="http://www.w3.org/2000/svg">
<path d="M9 18.75C12.3137 18.75 15 15.9518 15 12.5C15 9.04822 12.3137 6.25 9 6.25C5.68629 6.25 3 9.04822 3 12.5C3 15.9518 5.68629 18.75 9 18.75Z" fill="#171C8F"/>
<path d="M8.42389 13.6368C8.35637 13.6368 8.32262 13.603 8.32262 13.5355V13.1765C8.32262 12.9802 8.37479 12.8022 8.47913 12.6427C8.58961 12.4831 8.72464 12.3358 8.88423 12.2008C9.04381 12.0597 9.20032 11.9186 9.35377 11.7774C9.51335 11.6302 9.64531 11.4737 9.74966 11.308C9.86014 11.1423 9.91538 10.9551 9.91538 10.7465C9.91538 10.5317 9.83865 10.3722 9.68521 10.2679C9.5379 10.1635 9.31694 10.1114 9.02233 10.1114C8.6602 10.1114 8.40855 10.1942 8.26738 10.3599C8.12621 10.5256 8.05869 10.7618 8.06483 11.0687C8.06483 11.1423 8.03414 11.1791 7.97276 11.1791H7.30067C7.25771 11.1791 7.23009 11.1669 7.21781 11.1423C7.20554 11.1178 7.1994 11.0901 7.1994 11.0595C7.19326 10.4888 7.34364 10.0654 7.65053 9.78921C7.96356 9.51307 8.43003 9.375 9.04995 9.375C9.63917 9.375 10.078 9.48852 10.3665 9.71557C10.655 9.93649 10.7992 10.2556 10.7992 10.6729C10.7992 10.9429 10.744 11.1853 10.6335 11.4C10.523 11.6148 10.388 11.805 10.2284 11.9707C10.075 12.1364 9.91538 12.2898 9.74966 12.431C9.59007 12.5721 9.45504 12.704 9.34456 12.8268C9.24022 12.9495 9.18498 13.0722 9.17884 13.195L9.16963 13.5355C9.16963 13.603 9.13894 13.6368 9.07757 13.6368H8.42389ZM8.78295 15.625C8.58654 15.625 8.4423 15.5759 8.35024 15.4777C8.26431 15.3795 8.22134 15.2476 8.22134 15.0819V14.9715C8.22134 14.7996 8.26431 14.6646 8.35024 14.5665C8.4423 14.4683 8.58654 14.4192 8.78295 14.4192C8.97936 14.4192 9.12053 14.4683 9.20646 14.5665C9.29853 14.6646 9.34456 14.7996 9.34456 14.9715V15.0819C9.34456 15.2476 9.29853 15.3795 9.20646 15.4777C9.12053 15.5759 8.97936 15.625 8.78295 15.625Z" fill="#F5E2E2"/>
</svg>
